  999
DXF file created by gear template generator.  2015-02-21T13:12:22
  0
SECTION
  2
ENTITIES
 0
LWPOLYLINE
 8
a
 90
864
 70
1
 10
43.31461
 20
16.3943
 10
43.36543
 20
16.3627
 10
43.41603
 20
16.33047
 10
43.51662
 20
16.26415
 10
43.71541
 20
16.12456
 10
43.91115
 20
15.97643
 10
44.10398
 20
15.82036
 10
44.29393
 20
15.65683
 10
44.48106
 20
15.4862
 10
44.16817
 20
14.6242
 10
43.91517
 20
14.61334
 10
43.66454
 20
14.60973
 10
43.4165
 20
14.61368
 10
43.17131
 20
14.6256
 10
42.92927
 20
14.64603
 10
42.80956
 20
14.65967
 10
42.75006
 20
14.6674
 10
42.69081
 20
14.67577
 10
42.29688
 20
13.77837
 10
42.34314
 20
13.74041
 10
42.38911
 20
13.70185
 10
42.48018
 20
13.62296
 10
42.65904
 20
13.45863
 10
42.83378
 20
13.28621
 10
43.00458
 20
13.10631
 10
43.17157
 20
12.91938
 10
43.33483
 20
12.72579
 10
42.9121
 20
11.912
 10
42.65984
 20
11.93426
 10
42.41089
 20
11.96339
 10
42.16549
 20
11.99969
 10
41.92395
 20
12.04351
 10
41.68665
 20
12.09536
 10
41.56974
 20
12.12451
 10
41.51176
 20
12.13994
 10
41.45411
 20
12.15596
 10
40.94641
 20
11.31766
 10
40.98733
 20
11.27399
 10
41.02787
 20
11.22976
 10
41.10786
 20
11.13966
 10
41.26375
 20
10.95339
 10
41.41448
 20
10.75963
 10
41.56034
 20
10.55898
 10
41.7015
 20
10.35185
 10
41.83809
 20
10.13861
 10
41.31276
 20
9.38696
 10
41.06556
 20
9.44195
 10
40.82254
 20
9.50333
 10
40.58398
 20
9.57135
 10
40.35023
 20
9.64632
 10
40.12173
 20
9.7287
 10
40.00963
 20
9.77286
 10
39.95415
 20
9.79573
 10
39.89909
 20
9.81914
 10
39.28632
 20
9.05428
 10
39.32118
 20
9.00564
 10
39.3556
 20
8.95649
 10
39.42315
 20
8.85673
 10
39.55338
 20
8.6517
 10
39.67754
 20
8.43993
 10
39.79596
 20
8.22195
 10
39.90888
 20
7.99817
 10
40.01647
 20
7.76893
 10
39.39752
 20
7.09228
 10
39.15962
 20
7.17906
 10
38.92669
 20
7.27164
 10
38.69905
 20
7.37021
 10
38.47708
 20
7.47505
 10
38.26128
 20
7.58655
 10
38.1559
 20
7.64496
 10
38.10389
 20
7.67488
 10
38.05235
 20
7.70528
 10
37.34499
 20
7.02694
 10
37.3732
 20
6.97417
 10
37.40091
 20
6.92095
 10
37.45486
 20
6.81322
 10
37.55722
 20
6.59295
 10
37.65268
 20
6.36678
 10
37.74163
 20
6.13521
 10
37.82438
 20
5.89861
 10
37.90112
 20
5.65728
 10
37.19915
 20
5.06721
 10
36.97461
 20
5.18431
 10
36.75576
 20
5.3065
 10
36.54293
 20
5.43394
 10
36.33654
 20
5.56686
 10
36.13715
 20
5.70557
 10
36.0403
 20
5.77724
 10
35.99263
 20
5.81368
 10
35.9455
 20
5.85055
 10
35.15565
 20
5.27035
 10
35.17674
 20
5.21435
 10
35.19726
 20
5.15796
 10
35.23669
 20
5.04411
 10
35.30942
 20
4.81236
 10
35.37454
 20
4.57567
 10
35.43251
 20
4.33447
 10
35.48366
 20
4.0891
 10
35.52825
 20
3.83982
 10
34.75526
 20
3.34642
 10
34.54792
 20
3.49182
 10
34.34689
 20
3.64153
 10
34.15252
 20
3.79566
 10
33.96525
 20
3.95438
 10
33.78567
 20
4.11793
 10
33.699
 20
4.20163
 10
33.6565
 20
4.24398
 10
33.61458
 20
4.28669
 10
32.75576
 20
3.81454
 10
32.76935
 20
3.75627
 10
32.78234
 20
3.69769
 10
32.80657
 20
3.57967
 10
32.84844
 20
3.34041
 10
32.8821
 20
3.09724
 10
32.90809
 20
2.85054
 10
32.92678
 20
2.60059
 10
32.93845
 20
2.34762
 10
32.10767
 20
1.95934
 10
31.92109
 20
2.13056
 10
31.74132
 20
2.30522
 10
31.56873
 20
2.48341
 10
31.40378
 20
2.66521
 10
31.24708
 20
2.85081
 10
31.17207
 20
2.9451
 10
31.13547
 20
2.99264
 10
31.09948
 20
3.04045
 10
30.18638
 20
2.68445
 10
30.19225
 20
2.6249
 10
30.19748
 20
2.56512
 10
30.2061
 20
2.44495
 10
30.21638
 20
2.20227
 10
30.21802
 20
1.95679
 10
30.21158
 20
1.7088
 10
30.19748
 20
1.45855
 10
30.17603
 20
1.20622
 10
29.30168
 20
0.9297
 10
29.13904
 20
1.12381
 10
28.98361
 20
1.32045
 10
28.83575
 20
1.51964
 10
28.69594
 20
1.72142
 10
28.56481
 20
1.92587
 10
28.50276
 20
2.02915
 10
28.47267
 20
2.08106
 10
28.44323
 20
2.13316
 10
27.49147
 20
1.89939
 10
27.48952
 20
1.83958
 10
27.48691
 20
1.77963
 10
27.47976
 20
1.65936
 10
27.45828
 20
1.41742
 10
27.42786
 20
1.17383
 10
27.38911
 20
0.9288
 10
27.34247
 20
0.68253
 10
27.28827
 20
0.43516
 10
26.3853
 20
0.27513
 10
26.24939
 20
0.48881
 10
26.12096
 20
0.70405
 10
26.00036
 20
0.92083
 10
25.88809
 20
1.13914
 10
25.78476
 20
1.35896
 10
25.73672
 20
1.46945
 10
25.71366
 20
1.52485
 10
25.69128
 20
1.58034
 10
24.71715
 20
1.4728
 10
24.70741
 20
1.41376
 10
24.69699
 20
1.35467
 10
24.67421
 20
1.23636
 10
24.62133
 20
0.99929
 10
24.55938
 20
0.76175
 10
24.48898
 20
0.52388
 10
24.41059
 20
0.2858
 10
24.32456
 20
0.04762
 10
23.40844
 20
0.00682
 10
23.30158
 20
0.23641
 10
23.20234
 20
0.46658
 10
23.11107
 20
0.69725
 10
23.02825
 20
0.92834
 10
22.9545
 20
1.15977
 10
22.92129
 20
1.27559
 10
22.90567
 20
1.33352
 10
22.89072
 20
1.39146
 10
21.91088
 20
1.41198
 10
21.89352
 20
1.35472
 10
21.87548
 20
1.29749
 10
21.83745
 20
1.18317
 10
21.75407
 20
0.95503
 10
21.66165
 20
0.72761
 10
21.5608
 20
0.50096
 10
21.45201
 20
0.27515
 10
21.33563
 20
0.05024
 10
20.42202
 20
0.12937
 10
20.34604
 20
0.37094
 10
20.27769
 20
0.61209
 10
20.21731
 20
0.8527
 10
20.16537
 20
1.09262
 10
20.12246
 20
1.3317
 10
20.10465
 20
1.45086
 10
20.09671
 20
1.51034
 10
20.08946
 20
1.56974
 10
19.12068
 20
1.71798
 10
19.096
 20
1.66347
 10
19.07064
 20
1.60909
 10
19.01801
 20
1.5007
 10
18.90557
 20
1.2854
 10
18.78425
 20
1.07199
 10
18.65469
 20
0.86045
 10
18.51735
 20
0.65077
 10
18.37261
 20
0.44297
 10
17.47714
 20
0.64067
 10
17.43335
 20
0.89009
 10
17.39706
 20
1.13811
 10
17.3686
 20
1.38454
 10
17.34842
 20
1.62919
 10
17.33708
 20
1.87182
 10
17.33498
 20
1.99229
 10
17.33488
 20
2.05229
 10
17.33543
 20
2.11212
 10
16.3943
 20
2.38555
 10
16.3627
 20
2.33473
 10
16.33047
 20
2.28412
 10
16.26415
 20
2.18354
 10
16.12456
 20
1.98475
 10
15.97643
 20
1.789
 10
15.82036
 20
1.59618
 10
15.65683
 20
1.40622
 10
15.4862
 20
1.2191
 10
14.6242
 20
1.53199
 10
14.61334
 20
1.78499
 10
14.60973
 20
2.03562
 10
14.61368
 20
2.28365
 10
14.6256
 20
2.52885
 10
14.64603
 20
2.77088
 10
14.65967
 20
2.89059
 10
14.6674
 20
2.95009
 10
14.67577
 20
3.00935
 10
13.77837
 20
3.40328
 10
13.74041
 20
3.35701
 10
13.70185
 20
3.31105
 10
13.62296
 20
3.21998
 10
13.45863
 20
3.04111
 10
13.28621
 20
2.86637
 10
13.10631
 20
2.69557
 10
12.91938
 20
2.52858
 10
12.72579
 20
2.36533
 10
11.912
 20
2.78806
 10
11.93426
 20
3.04032
 10
11.96339
 20
3.28927
 10
11.99969
 20
3.53467
 10
12.04351
 20
3.77621
 10
12.09536
 20
4.01351
 10
12.12451
 20
4.13041
 10
12.13994
 20
4.1884
 10
12.15596
 20
4.24605
 10
11.31766
 20
4.75374
 10
11.27399
 20
4.71283
 10
11.22976
 20
4.67229
 10
11.13966
 20
4.5923
 10
10.95339
 20
4.43641
 10
10.75963
 20
4.28567
 10
10.55898
 20
4.13981
 10
10.35185
 20
3.99865
 10
10.13861
 20
3.86206
 10
9.38696
 20
4.3874
 10
9.44195
 20
4.63459
 10
9.50333
 20
4.87761
 10
9.57135
 20
5.11617
 10
9.64632
 20
5.34993
 10
9.7287
 20
5.57843
 10
9.77286
 20
5.69053
 10
9.79573
 20
5.746
 10
9.81914
 20
5.80107
 10
9.05428
 20
6.41384
 10
9.00564
 20
6.37898
 10
8.95649
 20
6.34456
 10
8.85673
 20
6.27701
 10
8.6517
 20
6.14677
 10
8.43993
 20
6.02261
 10
8.22195
 20
5.90419
 10
7.99817
 20
5.79128
 10
7.76893
 20
5.68369
 10
7.09228
 20
6.30264
 10
7.17906
 20
6.54054
 10
7.27164
 20
6.77347
 10
7.37021
 20
7.00111
 10
7.47505
 20
7.22308
 10
7.58655
 20
7.43887
 10
7.64496
 20
7.54425
 10
7.67488
 20
7.59627
 10
7.70528
 20
7.64781
 10
7.02694
 20
8.35517
 10
6.97417
 20
8.32695
 10
6.92095
 20
8.29924
 10
6.81322
 20
8.24529
 10
6.59295
 20
8.14293
 10
6.36678
 20
8.04748
 10
6.13521
 20
7.95852
 10
5.89861
 20
7.87578
 10
5.65728
 20
7.79903
 10
5.06721
 20
8.50101
 10
5.18431
 20
8.72555
 10
5.3065
 20
8.9444
 10
5.43394
 20
9.15723
 10
5.56686
 20
9.36361
 10
5.70557
 20
9.56301
 10
5.77724
 20
9.65986
 10
5.81368
 20
9.70752
 10
5.85055
 20
9.75466
 10
5.27035
 20
10.54451
 10
5.21435
 20
10.52342
 10
5.15796
 20
10.5029
 10
5.04411
 20
10.46347
 10
4.81236
 20
10.39073
 10
4.57567
 20
10.32562
 10
4.33447
 20
10.26765
 10
4.0891
 20
10.2165
 10
3.83982
 20
10.17191
 10
3.34642
 20
10.9449
 10
3.49182
 20
11.15223
 10
3.64153
 20
11.35326
 10
3.79566
 20
11.54764
 10
3.95438
 20
11.73491
 10
4.11793
 20
11.91449
 10
4.20163
 20
12.00116
 10
4.24398
 20
12.04366
 10
4.28669
 20
12.08557
 10
3.81454
 20
12.9444
 10
3.75627
 20
12.9308
 10
3.69769
 20
12.91781
 10
3.57967
 20
12.89358
 10
3.34041
 20
12.85172
 10
3.09724
 20
12.81805
 10
2.85054
 20
12.79207
 10
2.60059
 20
12.77338
 10
2.34762
 20
12.76171
 10
1.95934
 20
13.59249
 10
2.13056
 20
13.77907
 10
2.30522
 20
13.95884
 10
2.48341
 20
14.13143
 10
2.66521
 20
14.29638
 10
2.85081
 20
14.45308
 10
2.9451
 20
14.52808
 10
2.99264
 20
14.56469
 10
3.04045
 20
14.60067
 10
2.68445
 20
15.51378
 10
2.6249
 20
15.5079
 10
2.56512
 20
15.50267
 10
2.44495
 20
15.49406
 10
2.20227
 20
15.48378
 10
1.95679
 20
15.48214
 10
1.7088
 20
15.48858
 10
1.45855
 20
15.50268
 10
1.20622
 20
15.52412
 10
0.9297
 20
16.39847
 10
1.12381
 20
16.56111
 10
1.32045
 20
16.71655
 10
1.51964
 20
16.8644
 10
1.72142
 20
17.00421
 10
1.92587
 20
17.13535
 10
2.02915
 20
17.1974
 10
2.08106
 20
17.22749
 10
2.13316
 20
17.25692
 10
1.89939
 20
18.20869
 10
1.83958
 20
18.21063
 10
1.77963
 20
18.21325
 10
1.65936
 20
18.22039
 10
1.41742
 20
18.24188
 10
1.17383
 20
18.2723
 10
0.9288
 20
18.31105
 10
0.68253
 20
18.35769
 10
0.43516
 20
18.41189
 10
0.27513
 20
19.31485
 10
0.48881
 20
19.45076
 10
0.70405
 20
19.5792
 10
0.92083
 20
19.69979
 10
1.13914
 20
19.81207
 10
1.35896
 20
19.91539
 10
1.46945
 20
19.96344
 10
1.52485
 20
19.98649
 10
1.58034
 20
20.00887
 10
1.4728
 20
20.98301
 10
1.41376
 20
20.99275
 10
1.35467
 20
21.00316
 10
1.23636
 20
21.02594
 10
0.99929
 20
21.07883
 10
0.76175
 20
21.14078
 10
0.52388
 20
21.21118
 10
0.2858
 20
21.28957
 10
0.04762
 20
21.37559
 10
0.00682
 20
22.29172
 10
0.23641
 20
22.39858
 10
0.46658
 20
22.49782
 10
0.69725
 20
22.58908
 10
0.92834
 20
22.6719
 10
1.15977
 20
22.74565
 10
1.27559
 20
22.77886
 10
1.33352
 20
22.79449
 10
1.39146
 20
22.80944
 10
1.41198
 20
23.78928
 10
1.35472
 20
23.80664
 10
1.29749
 20
23.82468
 10
1.18317
 20
23.86271
 10
0.95503
 20
23.94608
 10
0.72761
 20
24.03851
 10
0.50096
 20
24.13935
 10
0.27515
 20
24.24815
 10
0.05024
 20
24.36452
 10
0.12937
 20
25.27814
 10
0.37094
 20
25.35411
 10
0.61209
 20
25.42247
 10
0.8527
 20
25.48284
 10
1.09262
 20
25.53479
 10
1.3317
 20
25.5777
 10
1.45086
 20
25.59551
 10
1.51034
 20
25.60344
 10
1.56974
 20
25.6107
 10
1.71798
 20
26.57947
 10
1.66347
 20
26.60416
 10
1.60909
 20
26.62952
 10
1.5007
 20
26.68214
 10
1.2854
 20
26.79458
 10
1.07199
 20
26.9159
 10
0.86045
 20
27.04547
 10
0.65077
 20
27.18281
 10
0.44297
 20
27.32754
 10
0.64067
 20
28.22301
 10
0.89009
 20
28.26681
 10
1.13811
 20
28.3031
 10
1.38454
 20
28.33155
 10
1.62919
 20
28.35174
 10
1.87182
 20
28.36308
 10
1.99229
 20
28.36518
 10
2.05229
 20
28.36528
 10
2.11212
 20
28.36472
 10
2.38555
 20
29.30586
 10
2.33473
 20
29.33745
 10
2.28412
 20
29.36969
 10
2.18354
 20
29.43601
 10
1.98475
 20
29.57559
 10
1.789
 20
29.72373
 10
1.59618
 20
29.8798
 10
1.40622
 20
30.04333
 10
1.2191
 20
30.21395
 10
1.53199
 20
31.07596
 10
1.78499
 20
31.08682
 10
2.03562
 20
31.09043
 10
2.28365
 20
31.08647
 10
2.52885
 20
31.07455
 10
2.77088
 20
31.05413
 10
2.89059
 20
31.04048
 10
2.95009
 20
31.03275
 10
3.00935
 20
31.02439
 10
3.40328
 20
31.92179
 10
3.35701
 20
31.95974
 10
3.31105
 20
31.99831
 10
3.21998
 20
32.07719
 10
3.04111
 20
32.24153
 10
2.86637
 20
32.41395
 10
2.69557
 20
32.59385
 10
2.52858
 20
32.78078
 10
2.36533
 20
32.97436
 10
2.78806
 20
33.78815
 10
3.04032
 20
33.7659
 10
3.28927
 20
33.73676
 10
3.53467
 20
33.70047
 10
3.77621
 20
33.65665
 10
4.01351
 20
33.6048
 10
4.13041
 20
33.57565
 10
4.1884
 20
33.56022
 10
4.24605
 20
33.54419
 10
4.75374
 20
34.38249
 10
4.71283
 20
34.42616
 10
4.67229
 20
34.4704
 10
4.5923
 20
34.5605
 10
4.43641
 20
34.74677
 10
4.28567
 20
34.94052
 10
4.13981
 20
35.14118
 10
3.99865
 20
35.3483
 10
3.86206
 20
35.56154
 10
4.3874
 20
36.31319
 10
4.63459
 20
36.25821
 10
4.87761
 20
36.19682
 10
5.11617
 20
36.12881
 10
5.34993
 20
36.05383
 10
5.57843
 20
35.97146
 10
5.69053
 20
35.9273
 10
5.746
 20
35.90443
 10
5.80107
 20
35.88102
 10
6.41384
 20
36.64588
 10
6.37898
 20
36.69451
 10
6.34456
 20
36.74366
 10
6.27701
 20
36.84343
 10
6.14677
 20
37.04846
 10
6.02261
 20
37.26023
 10
5.90419
 20
37.47821
 10
5.79128
 20
37.70198
 10
5.68369
 20
37.93123
 10
6.30264
 20
38.60788
 10
6.54054
 20
38.5211
 10
6.77347
 20
38.42852
 10
7.00111
 20
38.32994
 10
7.22308
 20
38.2251
 10
7.43887
 20
38.1136
 10
7.54425
 20
38.05519
 10
7.59627
 20
38.02528
 10
7.64781
 20
37.99488
 10
8.35517
 20
38.67321
 10
8.32695
 20
38.72598
 10
8.29924
 20
38.7792
 10
8.24529
 20
38.88693
 10
8.14293
 20
39.10721
 10
8.04748
 20
39.33337
 10
7.95852
 20
39.56494
 10
7.87578
 20
39.80154
 10
7.79903
 20
40.04287
 10
8.50101
 20
40.63294
 10
8.72555
 20
40.51585
 10
8.9444
 20
40.39366
 10
9.15723
 20
40.26622
 10
9.36361
 20
40.1333
 10
9.56301
 20
39.99459
 10
9.65986
 20
39.92292
 10
9.70752
 20
39.88648
 10
9.75466
 20
39.84961
 10
10.54451
 20
40.42981
 10
10.52342
 20
40.48581
 10
10.5029
 20
40.54219
 10
10.46347
 20
40.65604
 10
10.39073
 20
40.88779
 10
10.32562
 20
41.12448
 10
10.26765
 20
41.36568
 10
10.2165
 20
41.61106
 10
10.17191
 20
41.86034
 10
10.9449
 20
42.35374
 10
11.15223
 20
42.20834
 10
11.35326
 20
42.05863
 10
11.54764
 20
41.9045
 10
11.73491
 20
41.74578
 10
11.91449
 20
41.58223
 10
12.00116
 20
41.49853
 10
12.04366
 20
41.45617
 10
12.08557
 20
41.41347
 10
12.9444
 20
41.88561
 10
12.9308
 20
41.94389
 10
12.91781
 20
42.00246
 10
12.89358
 20
42.12049
 10
12.85172
 20
42.35975
 10
12.81805
 20
42.60291
 10
12.79207
 20
42.84962
 10
12.77338
 20
43.09957
 10
12.76171
 20
43.35254
 10
13.59249
 20
43.74082
 10
13.77907
 20
43.5696
 10
13.95884
 20
43.39493
 10
14.13143
 20
43.21675
 10
14.29638
 20
43.03494
 10
14.45308
 20
42.84935
 10
14.52808
 20
42.75506
 10
14.56469
 20
42.70752
 10
14.60067
 20
42.65971
 10
15.51378
 20
43.01571
 10
15.5079
 20
43.07526
 10
15.50267
 20
43.13503
 10
15.49406
 20
43.25521
 10
15.48378
 20
43.49789
 10
15.48214
 20
43.74337
 10
15.48858
 20
43.99135
 10
15.50268
 20
44.24161
 10
15.52412
 20
44.49393
 10
16.39847
 20
44.77045
 10
16.56111
 20
44.57635
 10
16.71655
 20
44.37971
 10
16.8644
 20
44.18052
 10
17.00421
 20
43.97874
 10
17.13535
 20
43.77428
 10
17.1974
 20
43.67101
 10
17.22749
 20
43.61909
 10
17.25692
 20
43.56699
 10
18.20869
 20
43.80077
 10
18.21063
 20
43.86058
 10
18.21325
 20
43.92052
 10
18.22039
 20
44.04079
 10
18.24188
 20
44.28274
 10
18.2723
 20
44.52633
 10
18.31105
 20
44.77135
 10
18.35769
 20
45.01763
 10
18.41189
 20
45.265
 10
19.31485
 20
45.42503
 10
19.45076
 20
45.21135
 10
19.5792
 20
44.9961
 10
19.69979
 20
44.77932
 10
19.81207
 20
44.56102
 10
19.91539
 20
44.34119
 10
19.96344
 20
44.2307
 10
19.98649
 20
44.17531
 10
20.00887
 20
44.11981
 10
20.98301
 20
44.22736
 10
20.99275
 20
44.2864
 10
21.00316
 20
44.34549
 10
21.02594
 20
44.4638
 10
21.07883
 20
44.70087
 10
21.14078
 20
44.93841
 10
21.21118
 20
45.17628
 10
21.28957
 20
45.41436
 10
21.37559
 20
45.65253
 10
22.29172
 20
45.69333
 10
22.39858
 20
45.46375
 10
22.49782
 20
45.23358
 10
22.58908
 20
45.00291
 10
22.6719
 20
44.77182
 10
22.74565
 20
44.54039
 10
22.77886
 20
44.42457
 10
22.79449
 20
44.36664
 10
22.80944
 20
44.3087
 10
23.78928
 20
44.28817
 10
23.80664
 20
44.34544
 10
23.82468
 20
44.40266
 10
23.86271
 20
44.51699
 10
23.94608
 20
44.74513
 10
24.03851
 20
44.97255
 10
24.13935
 20
45.19919
 10
24.24815
 20
45.425
 10
24.36452
 20
45.64991
 10
25.27814
 20
45.57079
 10
25.35411
 20
45.32922
 10
25.42247
 20
45.08806
 10
25.48284
 20
44.84745
 10
25.53479
 20
44.60753
 10
25.5777
 20
44.36845
 10
25.59551
 20
44.24929
 10
25.60344
 20
44.18982
 10
25.6107
 20
44.13042
 10
26.57947
 20
43.98218
 10
26.60416
 20
44.03669
 10
26.62952
 20
44.09107
 10
26.68214
 20
44.19945
 10
26.79458
 20
44.41476
 10
26.9159
 20
44.62817
 10
27.04547
 20
44.83971
 10
27.18281
 20
45.04939
 10
27.32754
 20
45.25718
 10
28.22301
 20
45.05948
 10
28.26681
 20
44.81006
 10
28.3031
 20
44.56205
 10
28.33155
 20
44.31562
 10
28.35174
 20
44.07097
 10
28.36308
 20
43.82834
 10
28.36518
 20
43.70787
 10
28.36528
 20
43.64787
 10
28.36472
 20
43.58803
 10
29.30586
 20
43.31461
 10
29.33745
 20
43.36543
 10
29.36969
 20
43.41603
 10
29.43601
 20
43.51662
 10
29.57559
 20
43.71541
 10
29.72373
 20
43.91115
 10
29.8798
 20
44.10398
 10
30.04333
 20
44.29393
 10
30.21395
 20
44.48106
 10
31.07596
 20
44.16817
 10
31.08682
 20
43.91517
 10
31.09043
 20
43.66454
 10
31.08647
 20
43.4165
 10
31.07455
 20
43.17131
 10
31.05413
 20
42.92927
 10
31.04048
 20
42.80956
 10
31.03275
 20
42.75006
 10
31.02439
 20
42.69081
 10
31.92179
 20
42.29688
 10
31.95974
 20
42.34314
 10
31.99831
 20
42.38911
 10
32.07719
 20
42.48018
 10
32.24153
 20
42.65904
 10
32.41395
 20
42.83378
 10
32.59385
 20
43.00458
 10
32.78078
 20
43.17157
 10
32.97436
 20
43.33483
 10
33.78815
 20
42.9121
 10
33.7659
 20
42.65984
 10
33.73676
 20
42.41089
 10
33.70047
 20
42.16549
 10
33.65665
 20
41.92395
 10
33.6048
 20
41.68665
 10
33.57565
 20
41.56974
 10
33.56022
 20
41.51176
 10
33.54419
 20
41.45411
 10
34.38249
 20
40.94641
 10
34.42616
 20
40.98733
 10
34.4704
 20
41.02787
 10
34.5605
 20
41.10786
 10
34.74677
 20
41.26375
 10
34.94052
 20
41.41448
 10
35.14118
 20
41.56034
 10
35.3483
 20
41.7015
 10
35.56154
 20
41.83809
 10
36.31319
 20
41.31276
 10
36.25821
 20
41.06556
 10
36.19682
 20
40.82254
 10
36.12881
 20
40.58398
 10
36.05383
 20
40.35023
 10
35.97146
 20
40.12173
 10
35.9273
 20
40.00963
 10
35.90443
 20
39.95415
 10
35.88102
 20
39.89909
 10
36.64588
 20
39.28632
 10
36.69451
 20
39.32118
 10
36.74366
 20
39.3556
 10
36.84343
 20
39.42315
 10
37.04846
 20
39.55338
 10
37.26023
 20
39.67754
 10
37.47821
 20
39.79596
 10
37.70198
 20
39.90888
 10
37.93123
 20
40.01647
 10
38.60788
 20
39.39752
 10
38.5211
 20
39.15962
 10
38.42852
 20
38.92669
 10
38.32994
 20
38.69905
 10
38.2251
 20
38.47708
 10
38.1136
 20
38.26128
 10
38.05519
 20
38.1559
 10
38.02528
 20
38.10389
 10
37.99488
 20
38.05235
 10
38.67321
 20
37.34499
 10
38.72598
 20
37.3732
 10
38.7792
 20
37.40091
 10
38.88693
 20
37.45486
 10
39.10721
 20
37.55722
 10
39.33337
 20
37.65268
 10
39.56494
 20
37.74163
 10
39.80154
 20
37.82438
 10
40.04287
 20
37.90112
 10
40.63294
 20
37.19915
 10
40.51585
 20
36.97461
 10
40.39366
 20
36.75576
 10
40.26622
 20
36.54293
 10
40.1333
 20
36.33654
 10
39.99459
 20
36.13715
 10
39.92292
 20
36.0403
 10
39.88648
 20
35.99263
 10
39.84961
 20
35.9455
 10
40.42981
 20
35.15565
 10
40.48581
 20
35.17674
 10
40.54219
 20
35.19726
 10
40.65604
 20
35.23669
 10
40.88779
 20
35.30942
 10
41.12448
 20
35.37454
 10
41.36568
 20
35.43251
 10
41.61106
 20
35.48366
 10
41.86034
 20
35.52825
 10
42.35374
 20
34.75526
 10
42.20834
 20
34.54792
 10
42.05863
 20
34.34689
 10
41.9045
 20
34.15252
 10
41.74578
 20
33.96525
 10
41.58223
 20
33.78567
 10
41.49853
 20
33.699
 10
41.45617
 20
33.6565
 10
41.41347
 20
33.61458
 10
41.88561
 20
32.75576
 10
41.94389
 20
32.76935
 10
42.00246
 20
32.78234
 10
42.12049
 20
32.80657
 10
42.35975
 20
32.84844
 10
42.60291
 20
32.8821
 10
42.84962
 20
32.90809
 10
43.09957
 20
32.92678
 10
43.35254
 20
32.93845
 10
43.74082
 20
32.10767
 10
43.5696
 20
31.92109
 10
43.39493
 20
31.74132
 10
43.21675
 20
31.56873
 10
43.03494
 20
31.40378
 10
42.84935
 20
31.24708
 10
42.75506
 20
31.17207
 10
42.70752
 20
31.13547
 10
42.65971
 20
31.09948
 10
43.01571
 20
30.18638
 10
43.07526
 20
30.19225
 10
43.13503
 20
30.19748
 10
43.25521
 20
30.2061
 10
43.49789
 20
30.21638
 10
43.74337
 20
30.21802
 10
43.99135
 20
30.21158
 10
44.24161
 20
30.19748
 10
44.49393
 20
30.17603
 10
44.77045
 20
29.30168
 10
44.57635
 20
29.13904
 10
44.37971
 20
28.98361
 10
44.18052
 20
28.83575
 10
43.97874
 20
28.69594
 10
43.77428
 20
28.56481
 10
43.67101
 20
28.50276
 10
43.61909
 20
28.47267
 10
43.56699
 20
28.44323
 10
43.80077
 20
27.49147
 10
43.86058
 20
27.48952
 10
43.92052
 20
27.48691
 10
44.04079
 20
27.47976
 10
44.28274
 20
27.45828
 10
44.52633
 20
27.42786
 10
44.77135
 20
27.38911
 10
45.01763
 20
27.34247
 10
45.265
 20
27.28827
 10
45.42503
 20
26.3853
 10
45.21135
 20
26.24939
 10
44.9961
 20
26.12096
 10
44.77932
 20
26.00036
 10
44.56102
 20
25.88809
 10
44.34119
 20
25.78476
 10
44.2307
 20
25.73672
 10
44.17531
 20
25.71366
 10
44.11981
 20
25.69128
 10
44.22736
 20
24.71715
 10
44.2864
 20
24.70741
 10
44.34549
 20
24.69699
 10
44.4638
 20
24.67421
 10
44.70087
 20
24.62133
 10
44.93841
 20
24.55938
 10
45.17628
 20
24.48898
 10
45.41436
 20
24.41059
 10
45.65253
 20
24.32456
 10
45.69333
 20
23.40844
 10
45.46375
 20
23.30158
 10
45.23358
 20
23.20234
 10
45.00291
 20
23.11107
 10
44.77182
 20
23.02825
 10
44.54039
 20
22.9545
 10
44.42457
 20
22.92129
 10
44.36664
 20
22.90567
 10
44.3087
 20
22.89072
 10
44.28817
 20
21.91088
 10
44.34544
 20
21.89352
 10
44.40266
 20
21.87548
 10
44.51699
 20
21.83745
 10
44.74513
 20
21.75407
 10
44.97255
 20
21.66165
 10
45.19919
 20
21.5608
 10
45.425
 20
21.45201
 10
45.64991
 20
21.33563
 10
45.57079
 20
20.42202
 10
45.32922
 20
20.34604
 10
45.08806
 20
20.27769
 10
44.84745
 20
20.21731
 10
44.60753
 20
20.16537
 10
44.36845
 20
20.12246
 10
44.24929
 20
20.10465
 10
44.18982
 20
20.09671
 10
44.13042
 20
20.08946
 10
43.98218
 20
19.12068
 10
44.03669
 20
19.096
 10
44.09107
 20
19.07064
 10
44.19945
 20
19.01801
 10
44.41476
 20
18.90557
 10
44.62817
 20
18.78425
 10
44.83971
 20
18.65469
 10
45.04939
 20
18.51735
 10
45.25718
 20
18.37261
 10
45.05948
 20
17.47714
 10
44.81006
 20
17.43335
 10
44.56205
 20
17.39706
 10
44.31562
 20
17.3686
 10
44.07097
 20
17.34842
 10
43.82834
 20
17.33708
 10
43.70787
 20
17.33498
 10
43.64787
 20
17.33488
 10
43.58803
 20
17.33543
 0
LWPOLYLINE
 8
a
 90
14
 70
1
 10
28.8465
 20
22.13201
 10
40.86575
 20
17.76924
 10
41.68686
 20
18.20045
 10
41.97132
 20
19.56043
 10
42.15771
 20
20.93729
 10
42.24509
 20
22.32395
 10
42.23302
 20
23.7133
 10
42.12154
 20
25.09823
 10
41.91124
 20
26.47164
 10
41.60319
 20
27.82647
 10
41.19896
 20
29.15578
 10
40.34277
 20
29.51229
 10
28.75893
 20
24.09835
 10
28.21867
 20
23.08917
 0
LWPOLYLINE
 8
a
 90
14
 70
1
 10
27.59794
 20
26.58244
 10
39.18178
 20
31.99639
 10
39.45748
 20
32.88192
 10
38.69696
 20
34.04471
 10
37.85518
 20
35.15009
 10
36.93646
 20
36.19239
 10
35.94549
 20
37.16628
 10
34.88737
 20
38.06675
 10
33.76752
 20
38.88918
 10
32.59169
 20
39.62937
 10
31.3659
 20
40.2835
 10
30.50838
 20
39.93018
 10
26.14561
 20
27.91093
 10
26.47718
 20
26.81531
 0
LWPOLYLINE
 8
a
 90
14
 70
1
 10
23.56814
 20
28.8465
 10
27.93092
 20
40.86575
 10
27.4997
 20
41.68686
 10
26.13972
 20
41.97132
 10
24.76287
 20
42.15771
 10
23.37621
 20
42.24509
 10
21.98685
 20
42.23302
 10
20.60192
 20
42.12154
 10
19.22852
 20
41.91124
 10
17.87369
 20
41.60319
 10
16.54438
 20
41.19896
 10
16.18786
 20
40.34277
 10
21.60181
 20
28.75893
 10
22.61099
 20
28.21867
 0
LWPOLYLINE
 8
a
 90
14
 70
1
 10
19.11772
 20
27.59794
 10
13.70377
 20
39.18178
 10
12.81824
 20
39.45748
 10
11.65545
 20
38.69696
 10
10.55007
 20
37.85518
 10
9.50776
 20
36.93646
 10
8.53388
 20
35.94549
 10
7.63341
 20
34.88737
 10
6.81097
 20
33.76752
 10
6.07079
 20
32.59169
 10
5.41665
 20
31.3659
 10
5.76998
 20
30.50838
 10
17.78923
 20
26.14561
 10
18.88485
 20
26.47718
 0
LWPOLYLINE
 8
a
 90
14
 70
1
 10
16.85366
 20
23.56814
 10
4.8344
 20
27.93092
 10
4.01329
 20
27.4997
 10
3.72884
 20
26.13972
 10
3.54245
 20
24.76287
 10
3.45506
 20
23.37621
 10
3.46714
 20
21.98685
 10
3.57862
 20
20.60192
 10
3.78892
 20
19.22852
 10
4.09697
 20
17.87369
 10
4.50119
 20
16.54438
 10
5.35739
 20
16.18786
 10
16.94123
 20
21.60181
 10
17.48149
 20
22.61099
 0
LWPOLYLINE
 8
a
 90
14
 70
1
 10
18.10222
 20
19.11772
 10
6.51838
 20
13.70377
 10
6.24268
 20
12.81824
 10
7.00319
 20
11.65545
 10
7.84497
 20
10.55007
 10
8.7637
 20
9.50776
 10
9.75466
 20
8.53388
 10
10.81278
 20
7.63341
 10
11.93263
 20
6.81097
 10
13.10847
 20
6.07079
 10
14.33426
 20
5.41665
 10
15.19177
 20
5.76998
 10
19.55455
 20
17.78923
 10
19.22297
 20
18.88485
 0
LWPOLYLINE
 8
a
 90
14
 70
1
 10
22.13201
 20
16.85366
 10
17.76924
 20
4.8344
 10
18.20045
 20
4.01329
 10
19.56043
 20
3.72884
 10
20.93729
 20
3.54245
 10
22.32395
 20
3.45506
 10
23.7133
 20
3.46714
 10
25.09823
 20
3.57862
 10
26.47164
 20
3.78892
 10
27.82647
 20
4.09697
 10
29.15578
 20
4.50119
 10
29.51229
 20
5.35739
 10
24.09835
 20
16.94123
 10
23.08917
 20
17.48149
 0
LWPOLYLINE
 8
a
 90
14
 70
1
 10
26.58244
 20
18.10222
 10
31.99639
 20
6.51838
 10
32.88192
 20
6.24268
 10
34.04471
 20
7.00319
 10
35.15009
 20
7.84497
 10
36.19239
 20
8.7637
 10
37.16628
 20
9.75466
 10
38.06675
 20
10.81278
 10
38.88918
 20
11.93263
 10
39.62937
 20
13.10847
 10
40.2835
 20
14.33426
 10
39.93018
 20
15.19177
 10
27.91093
 20
19.55455
 10
26.81531
 20
19.22297
 0
CIRCLE
 8
a
 10
22.85008
 20
22.85008
 40
1.5875
 0
LINE
 8
a
 10
15.23339
 20
22.85008
 30
0
 11
30.46677
 21
22.85008
 31
 0
 0
LINE
 8
a
 10
22.85008
 20
15.23339
 30
0
 11
22.85008
 21
30.46677
 31
 0
 0
LWPOLYLINE
 8
a
 90
480
 70
1
 10
48.68762
 20
17.27856
 10
48.60931
 20
17.28928
 10
48.56796
 20
17.27538
 10
48.53335
 20
17.25697
 10
48.50247
 20
17.23602
 10
48.44778
 20
17.1893
 10
48.39942
 20
17.1382
 10
48.30086
 20
17.03737
 10
48.19072
 20
16.94484
 10
48.07206
 20
16.85866
 10
47.94617
 20
16.77811
 10
47.81384
 20
16.70285
 10
47.6756
 20
16.63267
 10
47.53187
 20
16.56747
 10
47.38299
 20
16.50721
 10
46.72383
 20
17.08834
 10
46.76495
 20
17.2436
 10
46.81162
 20
17.39436
 10
46.86393
 20
17.54031
 10
46.92201
 20
17.68103
 10
46.98615
 20
17.81602
 10
47.05677
 20
17.94455
 10
47.13477
 20
18.06541
 10
47.22246
 20
18.17583
 10
47.26709
 20
18.23021
 10
47.30658
 20
18.29034
 10
47.3235
 20
18.32359
 10
47.33743
 20
18.36024
 10
47.34603
 20
18.403
 10
47.32559
 20
18.47935
 10
46.83726
 20
19.11922
 10
46.76901
 20
19.15908
 10
46.7255
 20
19.16207
 10
46.68647
 20
19.1583
 10
46.64993
 20
19.15076
 10
46.58151
 20
19.12853
 10
46.51728
 20
19.09983
 10
46.38764
 20
19.04439
 10
46.25047
 20
19.00105
 10
46.10787
 20
18.96684
 10
45.96074
 20
18.9406
 10
45.80968
 20
18.92171
 10
45.6551
 20
18.90977
 10
45.49737
 20
18.90454
 10
45.33676
 20
18.90584
 10
44.95016
 20
19.69498
 10
45.04757
 20
19.82268
 10
45.14838
 20
19.94412
 10
45.25255
 20
20.05894
 10
45.36007
 20
20.16672
 10
45.47098
 20
20.26689
 10
45.58542
 20
20.3586
 10
45.70373
 20
20.44042
 10
45.827
 20
20.50888
 10
45.88904
 20
20.54204
 10
45.94854
 20
20.58247
 10
45.97689
 20
20.60672
 10
46.00379
 20
20.63525
 10
46.0281
 20
20.67147
 10
46.03843
 20
20.74983
 10
45.83214
 20
21.52786
 10
45.78434
 20
21.59081
 10
45.74528
 20
21.61022
 10
45.70778
 20
21.62168
 10
45.67114
 20
21.62869
 10
45.59943
 20
21.63433
 10
45.5291
 20
21.6324
 10
45.38811
 20
21.63079
 10
45.2448
 20
21.64324
 10
45.09996
 20
21.66621
 10
44.95399
 20
21.69827
 10
44.80719
 20
21.73862
 10
44.65982
 20
21.78675
 10
44.51209
 20
21.84228
 10
44.3642
 20
21.90494
 10
44.30902
 20
22.78196
 10
44.44789
 20
22.86266
 10
44.5875
 20
22.93627
 10
44.72768
 20
23.00249
 10
44.86826
 20
23.06092
 10
45.00906
 20
23.11102
 10
45.14988
 20
23.15196
 10
45.2905
 20
23.18228
 10
45.43058
 20
23.19835
 10
45.50059
 20
23.20525
 10
45.57103
 20
23.21983
 10
45.60651
 20
23.23139
 10
45.64228
 20
23.24745
 10
45.6786
 20
23.2716
 10
45.71813
 20
23.34005
 10
45.82528
 20
24.1378
 10
45.80521
 20
24.21425
 10
45.77655
 20
24.24713
 10
45.74629
 20
24.27206
 10
45.71512
 20
24.29257
 10
45.65102
 20
24.32522
 10
45.58532
 20
24.35035
 10
45.45444
 20
24.40282
 10
45.3268
 20
24.46916
 10
45.20177
 20
24.54581
 10
45.07919
 20
24.63129
 10
44.95901
 20
24.72475
 10
44.84127
 20
24.82561
 10
44.72603
 20
24.93345
 10
44.61338
 20
25.04794
 10
44.89802
 20
25.8793
 10
45.0572
 20
25.90073
 10
45.21435
 20
25.91531
 10
45.3692
 20
25.92284
 10
45.52145
 20
25.92302
 10
45.6707
 20
25.91543
 10
45.81647
 20
25.89937
 10
45.95798
 20
25.87356
 10
46.09356
 20
25.8348
 10
46.16088
 20
25.81438
 10
46.23154
 20
25.8009
 10
46.26873
 20
25.798
 10
46.30793
 20
25.79915
 10
46.35072
 20
25.80757
 10
46.41344
 20
25.85567
 10
46.81772
 20
26.5517
 10
46.82844
 20
26.63001
 10
46.81454
 20
26.67135
 10
46.79612
 20
26.70597
 10
46.77517
 20
26.73684
 10
46.72845
 20
26.79154
 10
46.67736
 20
26.8399
 10
46.57653
 20
26.93846
 10
46.48399
 20
27.04859
 10
46.39782
 20
27.16725
 10
46.31727
 20
27.29314
 10
46.242
 20
27.42547
 10
46.17182
 20
27.56371
 10
46.10663
 20
27.70744
 10
46.04637
 20
27.85632
 10
46.62749
 20
28.51548
 10
46.78275
 20
28.47436
 10
46.93352
 20
28.42769
 10
47.07947
 20
28.37539
 10
47.22019
 20
28.3173
 10
47.35518
 20
28.25317
 10
47.4837
 20
28.18254
 10
47.60457
 20
28.10454
 10
47.71499
 20
28.01685
 10
47.76937
 20
27.97223
 10
47.82949
 20
27.93273
 10
47.86275
 20
27.91582
 10
47.8994
 20
27.90188
 10
47.94216
 20
27.89328
 10
48.01851
 20
27.91373
 10
48.65837
 20
28.40206
 10
48.69824
 20
28.4703
 10
48.70123
 20
28.51382
 10
48.69746
 20
28.55285
 10
48.68992
 20
28.58939
 10
48.66769
 20
28.6578
 10
48.63899
 20
28.72203
 10
48.58355
 20
28.85167
 10
48.54021
 20
28.98884
 10
48.506
 20
29.13145
 10
48.47976
 20
29.27857
 10
48.46086
 20
29.42964
 10
48.44892
 20
29.58421
 10
48.44369
 20
29.74195
 10
48.445
 20
29.90256
 10
49.23413
 20
30.28915
 10
49.36184
 20
30.19174
 10
49.48327
 20
30.09093
 10
49.59809
 20
29.98676
 10
49.70588
 20
29.87924
 10
49.80605
 20
29.76833
 10
49.89776
 20
29.6539
 10
49.97958
 20
29.53558
 10
50.04804
 20
29.41231
 10
50.0812
 20
29.35027
 10
50.12163
 20
29.29077
 10
50.14588
 20
29.26242
 10
50.17441
 20
29.23552
 10
50.21062
 20
29.21121
 10
50.28898
 20
29.20088
 10
51.06702
 20
29.40718
 10
51.12997
 20
29.45497
 10
51.14938
 20
29.49403
 10
51.16083
 20
29.53153
 10
51.16785
 20
29.56817
 10
51.17349
 20
29.63989
 10
51.17156
 20
29.71021
 10
51.16995
 20
29.8512
 10
51.1824
 20
29.99451
 10
51.20537
 20
30.13936
 10
51.23743
 20
30.28532
 10
51.27778
 20
30.43212
 10
51.3259
 20
30.5795
 10
51.38143
 20
30.72723
 10
51.4441
 20
30.87511
 10
52.32111
 20
30.93029
 10
52.40182
 20
30.79143
 10
52.47543
 20
30.65182
 10
52.54165
 20
30.51164
 10
52.60008
 20
30.37105
 10
52.65018
 20
30.23026
 10
52.69112
 20
30.08943
 10
52.72143
 20
29.94881
 10
52.73751
 20
29.80873
 10
52.7444
 20
29.73872
 10
52.75899
 20
29.66828
 10
52.77054
 20
29.6328
 10
52.78661
 20
29.59704
 10
52.81076
 20
29.56072
 10
52.8792
 20
29.52119
 10
53.67696
 20
29.41404
 10
53.75341
 20
29.4341
 10
53.78629
 20
29.46276
 10
53.81122
 20
29.49302
 10
53.83173
 20
29.52419
 10
53.86438
 20
29.58829
 10
53.88951
 20
29.654
 10
53.94198
 20
29.78488
 10
54.00832
 20
29.91251
 10
54.08497
 20
30.03754
 10
54.17045
 20
30.16013
 10
54.26391
 20
30.28031
 10
54.36476
 20
30.39805
 10
54.4726
 20
30.51328
 10
54.58709
 20
30.62593
 10
55.41846
 20
30.34129
 10
55.43989
 20
30.18211
 10
55.45447
 20
30.02496
 10
55.46199
 20
29.87011
 10
55.46218
 20
29.71787
 10
55.45459
 20
29.56861
 10
55.43852
 20
29.42284
 10
55.41272
 20
29.28133
 10
55.37396
 20
29.14576
 10
55.35354
 20
29.07844
 10
55.34006
 20
29.00778
 10
55.33716
 20
28.97058
 10
55.33831
 20
28.93139
 10
55.34672
 20
28.88859
 10
55.39483
 20
28.82588
 10
56.09086
 20
28.42159
 10
56.16916
 20
28.41088
 10
56.21051
 20
28.42477
 10
56.24512
 20
28.44319
 10
56.276
 20
28.46414
 10
56.33069
 20
28.51086
 10
56.37905
 20
28.56195
 10
56.47761
 20
28.66279
 10
56.58775
 20
28.75532
 10
56.70641
 20
28.8415
 10
56.8323
 20
28.92204
 10
56.96463
 20
28.99731
 10
57.10287
 20
29.06749
 10
57.2466
 20
29.13269
 10
57.39548
 20
29.19295
 10
58.05464
 20
28.61182
 10
58.01352
 20
28.45656
 10
57.96685
 20
28.30579
 10
57.91454
 20
28.15985
 10
57.85646
 20
28.01912
 10
57.79233
 20
27.88414
 10
57.7217
 20
27.75561
 10
57.6437
 20
27.63474
 10
57.55601
 20
27.52432
 10
57.51138
 20
27.46994
 10
57.47189
 20
27.40982
 10
57.45497
 20
27.37656
 10
57.44104
 20
27.33991
 10
57.43244
 20
27.29715
 10
57.45288
 20
27.22081
 10
57.94121
 20
26.58094
 10
58.00946
 20
26.54107
 10
58.05297
 20
26.53809
 10
58.092
 20
26.54185
 10
58.12854
 20
26.54939
 10
58.19696
 20
26.57163
 10
58.26119
 20
26.60032
 10
58.39083
 20
26.65577
 10
58.528
 20
26.69911
 10
58.6706
 20
26.73332
 10
58.81773
 20
26.75956
 10
58.96879
 20
26.77845
 10
59.12337
 20
26.79039
 10
59.2811
 20
26.79562
 10
59.44171
 20
26.79432
 10
59.82831
 20
26.00518
 10
59.7309
 20
25.87747
 10
59.63009
 20
25.75604
 10
59.52592
 20
25.64122
 10
59.4184
 20
25.53344
 10
59.30749
 20
25.43327
 10
59.19305
 20
25.34155
 10
59.07474
 20
25.25974
 10
58.95147
 20
25.19128
 10
58.88943
 20
25.15811
 10
58.82993
 20
25.11768
 10
58.80158
 20
25.09343
 10
58.77468
 20
25.0649
 10
58.75037
 20
25.02869
 10
58.74004
 20
24.95033
 10
58.94633
 20
24.17229
 10
58.99413
 20
24.10934
 10
59.03319
 20
24.08994
 10
59.07069
 20
24.07848
 10
59.10733
 20
24.07146
 10
59.17904
 20
24.06582
 10
59.24937
 20
24.06775
 10
59.39036
 20
24.06936
 10
59.53367
 20
24.05691
 10
59.67851
 20
24.03395
 10
59.82448
 20
24.00189
 10
59.97128
 20
23.96153
 10
60.11865
 20
23.91341
 10
60.26639
 20
23.85788
 10
60.41427
 20
23.79521
 10
60.46945
 20
22.9182
 10
60.33058
 20
22.83749
 10
60.19097
 20
22.76388
 10
60.05079
 20
22.69767
 10
59.91021
 20
22.63924
 10
59.76941
 20
22.58913
 10
59.62859
 20
22.54819
 10
59.48797
 20
22.51788
 10
59.34789
 20
22.50181
 10
59.27788
 20
22.49491
 10
59.20744
 20
22.48033
 10
59.17196
 20
22.46877
 10
59.13619
 20
22.4527
 10
59.09987
 20
22.42855
 10
59.06035
 20
22.36011
 10
58.95319
 20
21.56235
 10
58.97326
 20
21.48591
 10
59.00192
 20
21.45303
 10
59.03218
 20
21.42809
 10
59.06335
 20
21.40759
 10
59.12745
 20
21.37493
 10
59.19316
 20
21.3498
 10
59.32403
 20
21.29734
 10
59.45167
 20
21.23099
 10
59.5767
 20
21.15435
 10
59.69928
 20
21.06886
 10
59.81946
 20
20.97541
 10
59.93721
 20
20.87455
 10
60.05244
 20
20.76671
 10
60.16509
 20
20.65222
 10
59.88045
 20
19.82085
 10
59.72127
 20
19.79943
 10
59.56412
 20
19.78485
 10
59.40927
 20
19.77732
 10
59.25703
 20
19.77713
 10
59.10777
 20
19.78472
 10
58.962
 20
19.80079
 10
58.82049
 20
19.8266
 10
58.68492
 20
19.86536
 10
58.61759
 20
19.88578
 10
58.54694
 20
19.89926
 10
58.50974
 20
19.90216
 10
58.47054
 20
19.901
 10
58.42775
 20
19.89259
 10
58.36504
 20
19.84448
 10
57.96075
 20
19.14846
 10
57.95004
 20
19.07015
 10
57.96393
 20
19.02881
 10
57.98235
 20
18.99419
 10
58.0033
 20
18.96332
 10
58.05002
 20
18.90862
 10
58.10111
 20
18.86026
 10
58.20194
 20
18.7617
 10
58.29448
 20
18.65156
 10
58.38066
 20
18.5329
 10
58.4612
 20
18.40702
 10
58.53647
 20
18.27468
 10
58.60665
 20
18.13644
 10
58.67185
 20
17.99272
 10
58.7321
 20
17.84383
 10
58.15098
 20
17.18468
 10
57.99572
 20
17.2258
 10
57.84495
 20
17.27247
 10
57.699
 20
17.32477
 10
57.55828
 20
17.38286
 10
57.42329
 20
17.44699
 10
57.29477
 20
17.51762
 10
57.1739
 20
17.59561
 10
57.06348
 20
17.6833
 10
57.0091
 20
17.72793
 10
56.94898
 20
17.76743
 10
56.91572
 20
17.78434
 10
56.87907
 20
17.79827
 10
56.83631
 20
17.80688
 10
56.75996
 20
17.78643
 10
56.1201
 20
17.2981
 10
56.08023
 20
17.22985
 10
56.07725
 20
17.18634
 10
56.08101
 20
17.14731
 10
56.08855
 20
17.11077
 10
56.11078
 20
17.04236
 10
56.13948
 20
16.97813
 10
56.19492
 20
16.84848
 10
56.23826
 20
16.71132
 10
56.27247
 20
16.56871
 10
56.29871
 20
16.42158
 10
56.31761
 20
16.27052
 10
56.32955
 20
16.11595
 10
56.33478
 20
15.95821
 10
56.33347
 20
15.7976
 10
55.54434
 20
15.411
 10
55.41663
 20
15.50841
 10
55.2952
 20
15.60923
 10
55.18038
 20
15.7134
 10
55.0726
 20
15.82092
 10
54.97242
 20
15.93182
 10
54.88071
 20
16.04626
 10
54.79889
 20
16.16457
 10
54.73044
 20
16.28784
 10
54.69727
 20
16.34989
 10
54.65684
 20
16.40938
 10
54.63259
 20
16.43774
 10
54.60406
 20
16.46463
 10
54.56785
 20
16.48895
 10
54.48949
 20
16.49927
 10
53.71145
 20
16.29298
 10
53.6485
 20
16.24519
 10
53.62909
 20
16.20613
 10
53.61764
 20
16.16863
 10
53.61062
 20
16.13198
 10
53.60498
 20
16.06027
 10
53.60691
 20
15.98995
 10
53.60852
 20
15.84895
 10
53.59607
 20
15.70564
 10
53.57311
 20
15.5608
 10
53.54104
 20
15.41483
 10
53.50069
 20
15.26804
 10
53.45257
 20
15.12066
 10
53.39704
 20
14.97293
 10
53.33437
 20
14.82504
 10
52.45736
 20
14.76987
 10
52.37665
 20
14.90873
 10
52.30304
 20
15.04834
 10
52.23683
 20
15.18852
 10
52.17839
 20
15.3291
 10
52.12829
 20
15.4699
 10
52.08735
 20
15.61072
 10
52.05704
 20
15.75134
 10
52.04096
 20
15.89142
 10
52.03407
 20
15.96144
 10
52.01948
 20
16.03188
 10
52.00793
 20
16.06735
 10
51.99186
 20
16.10312
 10
51.96771
 20
16.13944
 10
51.89927
 20
16.17897
 10
51.10151
 20
16.28612
 10
51.02506
 20
16.26605
 10
50.99218
 20
16.23739
 10
50.96725
 20
16.20713
 10
50.94674
 20
16.17596
 10
50.91409
 20
16.11187
 10
50.88896
 20
16.04616
 10
50.8365
 20
15.91528
 10
50.77015
 20
15.78764
 10
50.6935
 20
15.66262
 10
50.60802
 20
15.54003
 10
50.51456
 20
15.41985
 10
50.41371
 20
15.30211
 10
50.30587
 20
15.18687
 10
50.19138
 20
15.07423
 10
49.36001
 20
15.35887
 10
49.33859
 20
15.51805
 10
49.32401
 20
15.6752
 10
49.31648
 20
15.83005
 10
49.31629
 20
15.98229
 10
49.32388
 20
16.13154
 10
49.33995
 20
16.27731
 10
49.36575
 20
16.41883
 10
49.40451
 20
16.5544
 10
49.42493
 20
16.62172
 10
49.43842
 20
16.69238
 10
49.44132
 20
16.72958
 10
49.44016
 20
16.76877
 10
49.43175
 20
16.81157
 10
49.38364
 20
16.87428
 0
CIRCLE
 8
a
 10
52.38924
 20
22.85008
 40
3.175
 0
LINE
 8
a
 10
49.69574
 20
22.85008
 30
0
 11
55.08274
 21
22.85008
 31
 0
 0
LINE
 8
a
 10
52.38924
 20
20.15658
 30
0
 11
52.38924
 21
25.54358
 31
 0
  0
ENDSEC
  0
EOF
