  999
DXF file created by gear template generator.  2014-09-21T21:45:46
  0
SECTION
  2
ENTITIES
 0
LWPOLYLINE
 8
a
 90
600
 70
1
 10
21.7995
 20
10.06298
 10
21.82362
 20
9.96247
 10
21.85784
 20
9.91967
 10
21.8939
 20
9.88722
 10
21.93099
 20
9.86049
 10
22.00715
 20
9.81765
 10
22.08511
 20
9.78432
 10
22.24265
 20
9.7263
 10
22.39615
 20
9.64863
 10
22.54743
 20
9.56127
 10
22.6966
 20
9.46532
 10
22.84367
 20
9.36149
 10
22.98862
 20
9.2503
 10
23.1314
 20
9.13212
 10
23.27196
 20
9.00726
 10
22.98531
 20
8.0206
 10
22.79973
 20
7.9905
 10
22.61585
 20
7.96723
 10
22.43389
 20
7.95101
 10
22.25408
 20
7.94215
 10
22.07672
 20
7.94106
 10
21.90218
 20
7.94836
 10
21.73095
 20
7.96503
 10
21.56685
 20
8.00046
 10
21.48317
 20
8.01409
 10
21.39591
 20
8.01873
 10
21.35027
 20
8.01603
 10
21.30243
 20
8.00796
 10
21.25061
 20
7.99016
 10
21.17639
 20
7.91822
 10
20.77227
 20
7.05943
 10
20.76415
 20
6.95638
 10
20.78347
 20
6.9051
 10
20.80774
 20
6.8631
 10
20.83475
 20
6.82621
 10
20.89395
 20
6.76194
 10
20.95779
 20
6.70615
 10
21.08969
 20
6.60229
 10
21.21168
 20
6.48098
 10
21.32856
 20
6.35114
 10
21.44078
 20
6.21379
 10
21.54856
 20
6.0696
 10
21.65206
 20
5.91906
 10
21.75133
 20
5.76255
 10
21.84643
 20
5.60036
 10
21.26891
 20
4.75057
 10
21.08311
 20
4.77929
 10
20.90104
 20
4.81398
 10
20.72297
 20
4.85479
 10
20.54923
 20
4.90192
 10
20.38022
 20
4.9557
 10
20.21647
 20
5.01658
 10
20.05878
 20
5.08534
 10
19.91365
 20
5.16975
 10
19.83828
 20
5.20857
 10
19.75673
 20
5.23994
 10
19.71248
 20
5.25148
 10
19.6645
 20
5.25859
 10
19.60971
 20
5.25767
 10
19.51689
 20
5.21218
 10
18.86717
 20
4.52031
 10
18.8276
 20
4.42481
 10
18.83013
 20
4.37007
 10
18.84023
 20
4.32263
 10
18.85453
 20
4.2792
 10
18.89096
 20
4.19978
 10
18.93444
 20
4.12699
 10
19.02779
 20
3.98745
 10
19.10632
 20
3.83439
 10
19.17736
 20
3.67479
 10
19.24164
 20
3.50948
 10
19.2996
 20
3.33904
 10
19.3515
 20
3.16389
 10
19.39756
 20
2.98435
 10
19.43788
 20
2.80072
 10
18.62603
 20
2.17099
 10
18.4582
 20
2.25571
 10
18.29576
 20
2.34497
 10
18.13901
 20
2.4388
 10
17.98834
 20
2.53732
 10
17.84422
 20
2.64069
 10
17.70729
 20
2.74919
 10
17.57857
 20
2.86332
 10
17.46663
 20
2.98844
 10
17.40694
 20
3.04865
 10
17.33908
 20
3.1037
 10
17.30057
 20
3.12834
 10
17.25713
 20
3.14993
 10
17.20474
 20
3.16599
 10
17.1024
 20
3.15141
 10
16.27068
 20
2.69417
 10
16.20354
 20
2.61557
 10
16.18902
 20
2.56274
 10
16.18397
 20
2.51449
 10
16.18415
 20
2.46877
 10
16.19426
 20
2.38198
 10
16.21311
 20
2.29932
 10
16.25878
 20
2.13776
 10
16.28617
 20
1.96792
 10
16.30441
 20
1.79418
 10
16.31446
 20
1.6171
 10
16.31691
 20
1.43709
 10
16.31215
 20
1.25447
 10
16.30047
 20
1.06949
 10
16.28208
 20
0.88239
 10
15.31536
 20
0.53435
 10
15.18193
 20
0.66679
 10
15.05502
 20
0.80187
 10
14.93494
 20
0.93955
 10
14.82209
 20
1.07981
 10
14.71696
 20
1.22266
 10
14.62027
 20
1.36816
 10
14.53311
 20
1.51648
 10
14.46532
 20
1.67007
 10
14.42716
 20
1.74578
 10
14.37963
 20
1.8191
 10
14.35061
 20
1.85444
 10
14.31597
 20
1.88839
 10
14.27111
 20
1.91985
 10
14.16927
 20
1.93761
 10
13.23696
 20
1.75977
 10
13.14882
 20
1.70577
 10
13.11869
 20
1.66
 10
13.09898
 20
1.61568
 10
13.08501
 20
1.57214
 10
13.06781
 20
1.48647
 10
13.0602
 20
1.40203
 10
13.05371
 20
1.23427
 10
13.02727
 20
1.06428
 10
12.99093
 20
0.8934
 10
12.94577
 20
0.72189
 10
12.89247
 20
0.54993
 10
12.83151
 20
0.37772
 10
12.76324
 20
0.2054
 10
12.68793
 20
0.03314
 10
11.66098
 20
0.00087
 10
11.575
 20
0.16806
 10
11.49605
 20
0.33575
 10
11.4244
 20
0.5038
 10
11.36041
 20
0.67206
 10
11.30457
 20
0.84041
 10
11.25757
 20
1.00866
 10
11.22051
 20
1.17666
 10
11.2035
 20
1.34368
 10
11.1906
 20
1.42748
 10
11.16805
 20
1.51189
 10
11.15138
 20
1.55447
 10
11.12892
 20
1.59747
 10
11.09598
 20
1.64125
 10
11.00462
 20
1.68961
 10
10.06298
 20
1.80857
 10
9.96247
 20
1.78445
 10
9.91967
 20
1.75023
 10
9.88722
 20
1.71417
 10
9.86049
 20
1.67708
 10
9.81765
 20
1.60092
 10
9.78432
 20
1.52296
 10
9.7263
 20
1.36542
 10
9.64863
 20
1.21192
 10
9.56127
 20
1.06064
 10
9.46532
 20
0.91147
 10
9.36149
 20
0.7644
 10
9.2503
 20
0.61945
 10
9.13212
 20
0.47667
 10
9.00726
 20
0.33611
 10
8.0206
 20
0.62276
 10
7.9905
 20
0.80834
 10
7.96723
 20
0.99222
 10
7.95101
 20
1.17418
 10
7.94215
 20
1.35399
 10
7.94106
 20
1.53135
 10
7.94836
 20
1.70589
 10
7.96503
 20
1.87712
 10
8.00046
 20
2.04122
 10
8.01409
 20
2.1249
 10
8.01873
 20
2.21216
 10
8.01603
 20
2.2578
 10
8.00796
 20
2.30564
 10
7.99016
 20
2.35746
 10
7.91822
 20
2.43168
 10
7.05943
 20
2.8358
 10
6.95638
 20
2.84392
 10
6.9051
 20
2.8246
 10
6.8631
 20
2.80033
 10
6.82621
 20
2.77332
 10
6.76194
 20
2.71412
 10
6.70615
 20
2.65028
 10
6.60229
 20
2.51837
 10
6.48098
 20
2.39639
 10
6.35114
 20
2.27951
 10
6.21379
 20
2.16729
 10
6.0696
 20
2.05951
 10
5.91906
 20
1.95601
 10
5.76255
 20
1.85674
 10
5.60036
 20
1.76164
 10
4.75057
 20
2.33916
 10
4.77929
 20
2.52496
 10
4.81398
 20
2.70703
 10
4.85479
 20
2.8851
 10
4.90192
 20
3.05884
 10
4.9557
 20
3.22785
 10
5.01658
 20
3.3916
 10
5.08534
 20
3.54929
 10
5.16975
 20
3.69442
 10
5.20857
 20
3.76979
 10
5.23994
 20
3.85134
 10
5.25148
 20
3.89559
 10
5.25859
 20
3.94357
 10
5.25767
 20
3.99836
 10
5.21218
 20
4.09118
 10
4.52031
 20
4.7409
 10
4.42481
 20
4.78047
 10
4.37007
 20
4.77794
 10
4.32263
 20
4.76784
 10
4.2792
 20
4.75354
 10
4.19978
 20
4.71711
 10
4.12699
 20
4.67363
 10
3.98745
 20
4.58028
 10
3.83439
 20
4.50175
 10
3.67479
 20
4.43071
 10
3.50948
 20
4.36643
 10
3.33904
 20
4.30847
 10
3.16389
 20
4.25657
 10
2.98435
 20
4.21051
 10
2.80072
 20
4.17019
 10
2.17099
 20
4.98204
 10
2.25571
 20
5.14987
 10
2.34497
 20
5.31231
 10
2.4388
 20
5.46906
 10
2.53732
 20
5.61973
 10
2.64069
 20
5.76385
 10
2.74919
 20
5.90077
 10
2.86332
 20
6.0295
 10
2.98844
 20
6.14144
 10
3.04865
 20
6.20113
 10
3.1037
 20
6.26899
 10
3.12834
 20
6.3075
 10
3.14993
 20
6.35094
 10
3.16599
 20
6.40333
 10
3.15141
 20
6.50567
 10
2.69417
 20
7.33739
 10
2.61557
 20
7.40453
 10
2.56274
 20
7.41905
 10
2.51449
 20
7.4241
 10
2.46877
 20
7.42392
 10
2.38198
 20
7.41381
 10
2.29932
 20
7.39496
 10
2.13776
 20
7.34929
 10
1.96792
 20
7.3219
 10
1.79418
 20
7.30366
 10
1.6171
 20
7.29361
 10
1.43709
 20
7.29116
 10
1.25447
 20
7.29592
 10
1.06949
 20
7.3076
 10
0.88239
 20
7.32599
 10
0.53435
 20
8.29271
 10
0.66679
 20
8.42614
 10
0.80187
 20
8.55305
 10
0.93955
 20
8.67313
 10
1.07981
 20
8.78598
 10
1.22266
 20
8.89111
 10
1.36816
 20
8.9878
 10
1.51648
 20
9.07496
 10
1.67007
 20
9.14275
 10
1.74578
 20
9.18091
 10
1.8191
 20
9.22844
 10
1.85444
 20
9.25746
 10
1.88839
 20
9.2921
 10
1.91985
 20
9.33696
 10
1.93761
 20
9.4388
 10
1.75977
 20
10.37111
 10
1.70577
 20
10.45925
 10
1.66
 20
10.48938
 10
1.61568
 20
10.50909
 10
1.57214
 20
10.52306
 10
1.48647
 20
10.54026
 10
1.40203
 20
10.54787
 10
1.23427
 20
10.55436
 10
1.06428
 20
10.5808
 10
0.8934
 20
10.61714
 10
0.72189
 20
10.6623
 10
0.54993
 20
10.7156
 10
0.37772
 20
10.77656
 10
0.2054
 20
10.84483
 10
0.03314
 20
10.92014
 10
0.00087
 20
11.94709
 10
0.16806
 20
12.03307
 10
0.33575
 20
12.11202
 10
0.5038
 20
12.18367
 10
0.67206
 20
12.24766
 10
0.84041
 20
12.3035
 10
1.00866
 20
12.3505
 10
1.17666
 20
12.38756
 10
1.34368
 20
12.40457
 10
1.42748
 20
12.41747
 10
1.51189
 20
12.44002
 10
1.55447
 20
12.45669
 10
1.59747
 20
12.47915
 10
1.64125
 20
12.51209
 10
1.68961
 20
12.60345
 10
1.80857
 20
13.54509
 10
1.78445
 20
13.6456
 10
1.75023
 20
13.6884
 10
1.71417
 20
13.72085
 10
1.67708
 20
13.74758
 10
1.60092
 20
13.79042
 10
1.52296
 20
13.82375
 10
1.36542
 20
13.88176
 10
1.21192
 20
13.95944
 10
1.06064
 20
14.0468
 10
0.91147
 20
14.14275
 10
0.7644
 20
14.24658
 10
0.61945
 20
14.35777
 10
0.47667
 20
14.47595
 10
0.33611
 20
14.60081
 10
0.62276
 20
15.58747
 10
0.80834
 20
15.61757
 10
0.99222
 20
15.64084
 10
1.17418
 20
15.65706
 10
1.35399
 20
15.66592
 10
1.53135
 20
15.667
 10
1.70589
 20
15.65971
 10
1.87712
 20
15.64304
 10
2.04122
 20
15.60761
 10
2.1249
 20
15.59398
 10
2.21216
 20
15.58934
 10
2.2578
 20
15.59204
 10
2.30564
 20
15.60011
 10
2.35746
 20
15.61791
 10
2.43168
 20
15.68985
 10
2.8358
 20
16.54864
 10
2.84392
 20
16.65169
 10
2.8246
 20
16.70297
 10
2.80033
 20
16.74497
 10
2.77332
 20
16.78186
 10
2.71412
 20
16.84613
 10
2.65028
 20
16.90192
 10
2.51837
 20
17.00578
 10
2.39639
 20
17.12709
 10
2.27951
 20
17.25693
 10
2.16729
 20
17.39428
 10
2.05951
 20
17.53847
 10
1.95601
 20
17.68901
 10
1.85674
 20
17.84552
 10
1.76164
 20
18.00771
 10
2.33916
 20
18.85749
 10
2.52496
 20
18.82878
 10
2.70703
 20
18.79409
 10
2.8851
 20
18.75328
 10
3.05884
 20
18.70615
 10
3.22785
 20
18.65237
 10
3.3916
 20
18.59149
 10
3.54929
 20
18.52273
 10
3.69442
 20
18.43832
 10
3.76979
 20
18.3995
 10
3.85134
 20
18.36813
 10
3.89559
 20
18.35659
 10
3.94357
 20
18.34948
 10
3.99836
 20
18.3504
 10
4.09118
 20
18.39589
 10
4.7409
 20
19.08776
 10
4.78047
 20
19.18326
 10
4.77794
 20
19.238
 10
4.76784
 20
19.28544
 10
4.75354
 20
19.32887
 10
4.71711
 20
19.40829
 10
4.67363
 20
19.48108
 10
4.58028
 20
19.62062
 10
4.50175
 20
19.77368
 10
4.43071
 20
19.93328
 10
4.36643
 20
20.09859
 10
4.30847
 20
20.26903
 10
4.25657
 20
20.44418
 10
4.21051
 20
20.62372
 10
4.17019
 20
20.80735
 10
4.98204
 20
21.43708
 10
5.14987
 20
21.35236
 10
5.31231
 20
21.2631
 10
5.46906
 20
21.16927
 10
5.61973
 20
21.07075
 10
5.76385
 20
20.96738
 10
5.90077
 20
20.85888
 10
6.0295
 20
20.74475
 10
6.14144
 20
20.61963
 10
6.20113
 20
20.55942
 10
6.26899
 20
20.50437
 10
6.3075
 20
20.47973
 10
6.35094
 20
20.45814
 10
6.40333
 20
20.44208
 10
6.50567
 20
20.45666
 10
7.33739
 20
20.9139
 10
7.40453
 20
20.9925
 10
7.41905
 20
21.04533
 10
7.4241
 20
21.09358
 10
7.42392
 20
21.1393
 10
7.41381
 20
21.22609
 10
7.39496
 20
21.30875
 10
7.34929
 20
21.47031
 10
7.3219
 20
21.64015
 10
7.30366
 20
21.81389
 10
7.29361
 20
21.99097
 10
7.29116
 20
22.17098
 10
7.29592
 20
22.3536
 10
7.3076
 20
22.53858
 10
7.32599
 20
22.72568
 10
8.29271
 20
23.07372
 10
8.42614
 20
22.94128
 10
8.55305
 20
22.8062
 10
8.67313
 20
22.66852
 10
8.78598
 20
22.52826
 10
8.89111
 20
22.38541
 10
8.9878
 20
22.23991
 10
9.07496
 20
22.09159
 10
9.14275
 20
21.938
 10
9.18091
 20
21.86229
 10
9.22844
 20
21.78897
 10
9.25746
 20
21.75363
 10
9.2921
 20
21.71968
 10
9.33696
 20
21.68822
 10
9.4388
 20
21.67046
 10
10.37111
 20
21.8483
 10
10.45925
 20
21.9023
 10
10.48938
 20
21.94807
 10
10.50909
 20
21.99239
 10
10.52306
 20
22.03593
 10
10.54026
 20
22.1216
 10
10.54787
 20
22.20604
 10
10.55436
 20
22.3738
 10
10.5808
 20
22.54379
 10
10.61714
 20
22.71467
 10
10.6623
 20
22.88618
 10
10.7156
 20
23.05814
 10
10.77656
 20
23.23035
 10
10.84483
 20
23.40267
 10
10.92014
 20
23.57493
 10
11.94709
 20
23.6072
 10
12.03307
 20
23.44001
 10
12.11202
 20
23.27232
 10
12.18367
 20
23.10427
 10
12.24766
 20
22.93601
 10
12.3035
 20
22.76766
 10
12.3505
 20
22.59941
 10
12.38756
 20
22.43141
 10
12.40457
 20
22.26439
 10
12.41747
 20
22.18059
 10
12.44002
 20
22.09618
 10
12.45669
 20
22.0536
 10
12.47915
 20
22.0106
 10
12.51209
 20
21.96682
 10
12.60345
 20
21.91846
 10
13.54509
 20
21.7995
 10
13.6456
 20
21.82362
 10
13.6884
 20
21.85784
 10
13.72085
 20
21.8939
 10
13.74758
 20
21.93099
 10
13.79042
 20
22.00715
 10
13.82375
 20
22.08511
 10
13.88176
 20
22.24265
 10
13.95944
 20
22.39615
 10
14.0468
 20
22.54743
 10
14.14275
 20
22.6966
 10
14.24658
 20
22.84367
 10
14.35777
 20
22.98862
 10
14.47595
 20
23.1314
 10
14.60081
 20
23.27196
 10
15.58747
 20
22.98531
 10
15.61757
 20
22.79973
 10
15.64084
 20
22.61585
 10
15.65706
 20
22.43389
 10
15.66592
 20
22.25408
 10
15.667
 20
22.07672
 10
15.65971
 20
21.90218
 10
15.64304
 20
21.73095
 10
15.60761
 20
21.56685
 10
15.59398
 20
21.48317
 10
15.58934
 20
21.39591
 10
15.59204
 20
21.35027
 10
15.60011
 20
21.30243
 10
15.61791
 20
21.25061
 10
15.68985
 20
21.17639
 10
16.54864
 20
20.77227
 10
16.65169
 20
20.76415
 10
16.70297
 20
20.78347
 10
16.74497
 20
20.80774
 10
16.78186
 20
20.83475
 10
16.84613
 20
20.89395
 10
16.90192
 20
20.95779
 10
17.00578
 20
21.08969
 10
17.12709
 20
21.21168
 10
17.25693
 20
21.32856
 10
17.39428
 20
21.44078
 10
17.53847
 20
21.54856
 10
17.68901
 20
21.65206
 10
17.84552
 20
21.75133
 10
18.00771
 20
21.84643
 10
18.85749
 20
21.26891
 10
18.82878
 20
21.08311
 10
18.79409
 20
20.90104
 10
18.75328
 20
20.72297
 10
18.70615
 20
20.54923
 10
18.65237
 20
20.38022
 10
18.59149
 20
20.21647
 10
18.52273
 20
20.05878
 10
18.43832
 20
19.91365
 10
18.3995
 20
19.83828
 10
18.36813
 20
19.75673
 10
18.35659
 20
19.71248
 10
18.34948
 20
19.6645
 10
18.3504
 20
19.60971
 10
18.39589
 20
19.51689
 10
19.08776
 20
18.86717
 10
19.18326
 20
18.8276
 10
19.238
 20
18.83013
 10
19.28544
 20
18.84023
 10
19.32887
 20
18.85453
 10
19.40829
 20
18.89096
 10
19.48108
 20
18.93444
 10
19.62062
 20
19.02779
 10
19.77368
 20
19.10632
 10
19.93328
 20
19.17736
 10
20.09859
 20
19.24164
 10
20.26903
 20
19.2996
 10
20.44418
 20
19.3515
 10
20.62372
 20
19.39756
 10
20.80735
 20
19.43788
 10
21.43708
 20
18.62603
 10
21.35236
 20
18.4582
 10
21.2631
 20
18.29576
 10
21.16927
 20
18.13901
 10
21.07075
 20
17.98834
 10
20.96738
 20
17.84422
 10
20.85888
 20
17.70729
 10
20.74475
 20
17.57857
 10
20.61963
 20
17.46663
 10
20.55942
 20
17.40694
 10
20.50437
 20
17.33908
 10
20.47973
 20
17.30057
 10
20.45814
 20
17.25713
 10
20.44208
 20
17.20474
 10
20.45666
 20
17.1024
 10
20.9139
 20
16.27068
 10
20.9925
 20
16.20354
 10
21.04533
 20
16.18902
 10
21.09358
 20
16.18397
 10
21.1393
 20
16.18415
 10
21.22609
 20
16.19426
 10
21.30875
 20
16.21311
 10
21.47031
 20
16.25878
 10
21.64015
 20
16.28617
 10
21.81389
 20
16.30441
 10
21.99097
 20
16.31446
 10
22.17098
 20
16.31691
 10
22.3536
 20
16.31215
 10
22.53858
 20
16.30047
 10
22.72568
 20
16.28208
 10
23.07372
 20
15.31536
 10
22.94128
 20
15.18193
 10
22.8062
 20
15.05502
 10
22.66852
 20
14.93494
 10
22.52826
 20
14.82209
 10
22.38541
 20
14.71696
 10
22.23991
 20
14.62027
 10
22.09159
 20
14.53311
 10
21.938
 20
14.46532
 10
21.86229
 20
14.42716
 10
21.78897
 20
14.37963
 10
21.75363
 20
14.35061
 10
21.71968
 20
14.31597
 10
21.68822
 20
14.27111
 10
21.67046
 20
14.16927
 10
21.8483
 20
13.23696
 10
21.9023
 20
13.14882
 10
21.94807
 20
13.11869
 10
21.99239
 20
13.09898
 10
22.03593
 20
13.08501
 10
22.1216
 20
13.06781
 10
22.20604
 20
13.0602
 10
22.3738
 20
13.05371
 10
22.54379
 20
13.02727
 10
22.71467
 20
12.99093
 10
22.88618
 20
12.94577
 10
23.05814
 20
12.89247
 10
23.23035
 20
12.83151
 10
23.40267
 20
12.76324
 10
23.57493
 20
12.68793
 10
23.6072
 20
11.66098
 10
23.44001
 20
11.575
 10
23.27232
 20
11.49605
 10
23.10427
 20
11.4244
 10
22.93601
 20
11.36041
 10
22.76766
 20
11.30457
 10
22.59941
 20
11.25757
 10
22.43141
 20
11.22051
 10
22.26439
 20
11.2035
 10
22.18059
 20
11.1906
 10
22.09618
 20
11.16805
 10
22.0536
 20
11.15138
 10
22.0106
 20
11.12892
 10
21.96682
 20
11.09598
 10
21.91846
 20
11.00462
 0
CIRCLE
 8
a
 10
11.80403
 20
11.80403
 40
3.175
 0
LWPOLYLINE
 8
a
 90
600
 70
1
 10
26.28841
 20
9.43222
 10
26.22636
 20
9.51489
 10
26.17796
 20
9.54058
 10
26.13198
 20
9.55603
 10
26.08732
 20
9.56584
 10
26.00041
 20
9.5749
 10
25.91563
 20
9.57453
 10
25.748
 20
9.56521
 10
25.57628
 20
9.57553
 10
25.40274
 20
9.59563
 10
25.22774
 20
9.62445
 10
25.05153
 20
9.66132
 10
24.87434
 20
9.7058
 10
24.69637
 20
9.75755
 10
24.51778
 20
9.81632
 10
24.38901
 20
10.83568
 10
24.54737
 20
10.93701
 10
24.70688
 20
11.03139
 10
24.86744
 20
11.11854
 10
25.02894
 20
11.19808
 10
25.19128
 20
11.26952
 10
25.35437
 20
11.33214
 10
25.51813
 20
11.38484
 10
25.68281
 20
11.4175
 10
25.76502
 20
11.43823
 10
25.84694
 20
11.46862
 10
25.88776
 20
11.48922
 10
25.92845
 20
11.51563
 10
25.96894
 20
11.55255
 10
26.00849
 20
11.64805
 10
26.0383
 20
12.5967
 10
26.00483
 20
12.69451
 10
25.96674
 20
12.73389
 10
25.92778
 20
12.7628
 10
25.88834
 20
12.78593
 10
25.80849
 20
12.8214
 10
25.72774
 20
12.84725
 10
25.56543
 20
12.89018
 10
25.40531
 20
12.95307
 10
25.24647
 20
13.02581
 10
25.08894
 20
13.10729
 10
24.93275
 20
13.19682
 10
24.77798
 20
13.29387
 10
24.62471
 20
13.39809
 10
24.47303
 20
13.50917
 10
24.66555
 20
14.51842
 10
24.84747
 20
14.56586
 10
25.02835
 20
14.60633
 10
25.20798
 20
14.6396
 10
25.38615
 20
14.66534
 10
25.56262
 20
14.68312
 10
25.73708
 20
14.69228
 10
25.90911
 20
14.6918
 10
26.07582
 20
14.67196
 10
26.16041
 20
14.66627
 10
26.24772
 20
14.66986
 10
26.29291
 20
14.67684
 10
26.33977
 20
14.68938
 10
26.38968
 20
14.71198
 10
26.45681
 20
14.79059
 10
26.77831
 20
15.6836
 10
26.7767
 20
15.78696
 10
26.75264
 20
15.83619
 10
26.72453
 20
15.87572
 10
26.69416
 20
15.9099
 10
26.62918
 20
15.96832
 10
26.56037
 20
16.01786
 10
26.41928
 20
16.10884
 10
26.28642
 20
16.21813
 10
26.15784
 20
16.33639
 10
26.03319
 20
16.46257
 10
25.91232
 20
16.59597
 10
25.79511
 20
16.73611
 10
25.68155
 20
16.88259
 10
25.57161
 20
17.0351
 10
26.06659
 20
17.93547
 10
26.25427
 20
17.92437
 10
26.4388
 20
17.90697
 10
26.61992
 20
17.8831
 10
26.79732
 20
17.85252
 10
26.97065
 20
17.81489
 10
27.1394
 20
17.76969
 10
27.30286
 20
17.71607
 10
27.45529
 20
17.64569
 10
27.53398
 20
17.61414
 10
27.61812
 20
17.59058
 10
27.66325
 20
17.58325
 10
27.71169
 20
17.5807
 10
27.76615
 20
17.58676
 10
27.85428
 20
17.64079
 10
28.436
 20
18.39074
 10
28.46641
 20
18.48954
 10
28.45875
 20
18.54379
 10
28.44422
 20
18.59007
 10
28.4259
 20
18.63197
 10
28.38215
 20
18.70761
 10
28.33202
 20
18.77598
 10
28.22595
 20
18.90611
 10
28.13337
 20
19.05111
 10
28.04762
 20
19.20331
 10
27.96807
 20
19.36183
 10
27.89433
 20
19.52606
 10
27.82617
 20
19.69556
 10
27.76343
 20
19.86996
 10
27.706
 20
20.04898
 10
28.45499
 20
20.75232
 10
28.63005
 20
20.68377
 10
28.80017
 20
20.6102
 10
28.96504
 20
20.53153
 10
29.12432
 20
20.44763
 10
29.27753
 20
20.35828
 10
29.42406
 20
20.26315
 10
29.56295
 20
20.16164
 10
29.68617
 20
20.0476
 10
29.75126
 20
19.99328
 10
29.824
 20
19.94487
 10
29.86466
 20
19.92395
 10
29.90994
 20
19.90655
 10
29.96361
 20
19.8955
 10
30.06412
 20
19.91964
 10
30.84912
 20
20.45312
 10
30.90857
 20
20.53769
 10
30.91804
 20
20.59166
 10
30.91853
 20
20.64016
 10
30.91406
 20
20.68567
 10
30.89582
 20
20.77112
 10
30.86927
 20
20.85164
 10
30.8086
 20
21.00818
 10
30.76536
 20
21.17469
 10
30.73084
 20
21.34595
 10
30.70417
 20
21.52129
 10
30.68479
 20
21.70027
 10
30.67234
 20
21.88253
 10
30.66656
 20
22.06778
 10
30.66727
 20
22.25579
 10
31.59694
 20
22.69326
 10
31.74225
 20
22.57396
 10
31.88131
 20
22.45142
 10
32.0138
 20
22.32565
 10
32.13936
 20
22.19664
 10
32.25746
 20
22.06432
 10
32.36742
 20
21.92856
 10
32.46815
 20
21.78911
 10
32.55009
 20
21.64258
 10
32.59521
 20
21.57079
 10
32.64943
 20
21.50227
 10
32.68164
 20
21.46982
 10
32.71933
 20
21.43928
 10
32.76695
 20
21.41218
 10
32.87
 20
21.40408
 10
33.78144
 20
21.66888
 10
33.86411
 20
21.73093
 10
33.8898
 20
21.77933
 10
33.90525
 20
21.82531
 10
33.91506
 20
21.86997
 10
33.92412
 20
21.95688
 10
33.92375
 20
22.04166
 10
33.91443
 20
22.20929
 10
33.92475
 20
22.38101
 10
33.94485
 20
22.55455
 10
33.97367
 20
22.72955
 10
34.01054
 20
22.90576
 10
34.05502
 20
23.08295
 10
34.10677
 20
23.26092
 10
34.16554
 20
23.43951
 10
35.1849
 20
23.56828
 10
35.28623
 20
23.40992
 10
35.38061
 20
23.25041
 10
35.46776
 20
23.08985
 10
35.5473
 20
22.92835
 10
35.61874
 20
22.76601
 10
35.68136
 20
22.60292
 10
35.73406
 20
22.43916
 10
35.76672
 20
22.27448
 10
35.78745
 20
22.19227
 10
35.81784
 20
22.11035
 10
35.83844
 20
22.06953
 10
35.86485
 20
22.02884
 10
35.90177
 20
21.98835
 10
35.99727
 20
21.9488
 10
36.94592
 20
21.91899
 10
37.04373
 20
21.95246
 10
37.08311
 20
21.99055
 10
37.11202
 20
22.02951
 10
37.13515
 20
22.06895
 10
37.17062
 20
22.1488
 10
37.19647
 20
22.22955
 10
37.2394
 20
22.39186
 10
37.30229
 20
22.55198
 10
37.37503
 20
22.71082
 10
37.45651
 20
22.86835
 10
37.54604
 20
23.02454
 10
37.64309
 20
23.17931
 10
37.74731
 20
23.33258
 10
37.85839
 20
23.48426
 10
38.86764
 20
23.29174
 10
38.91508
 20
23.10982
 10
38.95555
 20
22.92894
 10
38.98882
 20
22.74931
 10
39.01456
 20
22.57114
 10
39.03234
 20
22.39467
 10
39.0415
 20
22.22021
 10
39.04102
 20
22.04818
 10
39.02118
 20
21.88147
 10
39.01549
 20
21.79688
 10
39.01908
 20
21.70957
 10
39.02606
 20
21.66438
 10
39.0386
 20
21.61752
 10
39.0612
 20
21.56761
 10
39.13981
 20
21.50048
 10
40.03282
 20
21.17898
 10
40.13618
 20
21.18059
 10
40.18541
 20
21.20465
 10
40.22494
 20
21.23276
 10
40.25912
 20
21.26313
 10
40.31754
 20
21.32811
 10
40.36708
 20
21.39692
 10
40.45806
 20
21.53801
 10
40.56735
 20
21.67087
 10
40.68561
 20
21.79945
 10
40.81179
 20
21.9241
 10
40.9452
 20
22.04497
 10
41.08533
 20
22.16218
 10
41.23181
 20
22.27574
 10
41.38432
 20
22.38568
 10
42.28469
 20
21.8907
 10
42.27359
 20
21.70302
 10
42.25619
 20
21.51849
 10
42.23232
 20
21.33737
 10
42.20174
 20
21.15997
 10
42.16411
 20
20.98664
 10
42.11891
 20
20.81789
 10
42.06529
 20
20.65443
 10
41.99492
 20
20.502
 10
41.96336
 20
20.42331
 10
41.9398
 20
20.33917
 10
41.93247
 20
20.29404
 10
41.92992
 20
20.2456
 10
41.93599
 20
20.19114
 10
41.99001
 20
20.10301
 10
42.73996
 20
19.52129
 10
42.83876
 20
19.49088
 10
42.89301
 20
19.49854
 10
42.93929
 20
19.51307
 10
42.98119
 20
19.53139
 10
43.05683
 20
19.57513
 10
43.1252
 20
19.62527
 10
43.25533
 20
19.73134
 10
43.40033
 20
19.82392
 10
43.55253
 20
19.90967
 10
43.71106
 20
19.98922
 10
43.87529
 20
20.06296
 10
44.04478
 20
20.13112
 10
44.21918
 20
20.19386
 10
44.3982
 20
20.25129
 10
45.10154
 20
19.5023
 10
45.03299
 20
19.32724
 10
44.95942
 20
19.15712
 10
44.88075
 20
18.99225
 10
44.79685
 20
18.83297
 10
44.7075
 20
18.67976
 10
44.61237
 20
18.53323
 10
44.51086
 20
18.39434
 10
44.39682
 20
18.27112
 10
44.3425
 20
18.20603
 10
44.29409
 20
18.13329
 10
44.27317
 20
18.09263
 10
44.25577
 20
18.04735
 10
44.24472
 20
17.99368
 10
44.26886
 20
17.89317
 10
44.80234
 20
17.10817
 10
44.88691
 20
17.04872
 10
44.94088
 20
17.03925
 10
44.98938
 20
17.03876
 10
45.03489
 20
17.04323
 10
45.12034
 20
17.06147
 10
45.20086
 20
17.08802
 10
45.3574
 20
17.14869
 10
45.52391
 20
17.19193
 10
45.69517
 20
17.22645
 10
45.87051
 20
17.25312
 10
46.04949
 20
17.2725
 10
46.23175
 20
17.28495
 10
46.41701
 20
17.29073
 10
46.60501
 20
17.29002
 10
47.04248
 20
16.36035
 10
46.92318
 20
16.21504
 10
46.80064
 20
16.07598
 10
46.67487
 20
15.94349
 10
46.54586
 20
15.81793
 10
46.41354
 20
15.69983
 10
46.27778
 20
15.58987
 10
46.13833
 20
15.48914
 10
45.9918
 20
15.4072
 10
45.92001
 20
15.36208
 10
45.85149
 20
15.30786
 10
45.81904
 20
15.27565
 10
45.7885
 20
15.23796
 10
45.7614
 20
15.19034
 10
45.7533
 20
15.08729
 10
46.0181
 20
14.17585
 10
46.08015
 20
14.09318
 10
46.12855
 20
14.06749
 10
46.17453
 20
14.05204
 10
46.21919
 20
14.04223
 10
46.3061
 20
14.03317
 10
46.39088
 20
14.03354
 10
46.55851
 20
14.04286
 10
46.73023
 20
14.03254
 10
46.90377
 20
14.01244
 10
47.07877
 20
13.98362
 10
47.25498
 20
13.94675
 10
47.43217
 20
13.90227
 10
47.61014
 20
13.85052
 10
47.78873
 20
13.79175
 10
47.9175
 20
12.77239
 10
47.75914
 20
12.67106
 10
47.59963
 20
12.57668
 10
47.43907
 20
12.48953
 10
47.27757
 20
12.40999
 10
47.11523
 20
12.33855
 10
46.95214
 20
12.27593
 10
46.78838
 20
12.22323
 10
46.6237
 20
12.19057
 10
46.54149
 20
12.16984
 10
46.45957
 20
12.13945
 10
46.41875
 20
12.11885
 10
46.37806
 20
12.09244
 10
46.33757
 20
12.05552
 10
46.29802
 20
11.96002
 10
46.26821
 20
11.01137
 10
46.30168
 20
10.91356
 10
46.33977
 20
10.87418
 10
46.37873
 20
10.84527
 10
46.41817
 20
10.82214
 10
46.49802
 20
10.78667
 10
46.57877
 20
10.76082
 10
46.74108
 20
10.71789
 10
46.9012
 20
10.655
 10
47.06004
 20
10.58226
 10
47.21757
 20
10.50078
 10
47.37376
 20
10.41125
 10
47.52853
 20
10.3142
 10
47.6818
 20
10.20998
 10
47.83348
 20
10.0989
 10
47.64096
 20
9.08965
 10
47.45904
 20
9.04221
 10
47.27816
 20
9.00174
 10
47.09853
 20
8.96847
 10
46.92036
 20
8.94273
 10
46.74389
 20
8.92495
 10
46.56943
 20
8.91579
 10
46.3974
 20
8.91627
 10
46.23069
 20
8.93611
 10
46.1461
 20
8.9418
 10
46.05879
 20
8.93821
 10
46.0136
 20
8.93122
 10
45.96674
 20
8.91869
 10
45.91683
 20
8.89609
 10
45.8497
 20
8.81748
 10
45.5282
 20
7.92447
 10
45.52981
 20
7.82111
 10
45.55387
 20
7.77188
 10
45.58198
 20
7.73235
 10
45.61235
 20
7.69817
 10
45.67733
 20
7.63975
 10
45.74614
 20
7.59021
 10
45.88723
 20
7.49923
 10
46.02009
 20
7.38994
 10
46.14867
 20
7.27168
 10
46.27332
 20
7.1455
 10
46.39419
 20
7.01209
 10
46.5114
 20
6.87196
 10
46.62496
 20
6.72548
 10
46.7349
 20
6.57297
 10
46.23992
 20
5.6726
 10
46.05224
 20
5.6837
 10
45.86771
 20
5.7011
 10
45.68659
 20
5.72497
 10
45.50919
 20
5.75555
 10
45.33586
 20
5.79318
 10
45.16711
 20
5.83838
 10
45.00365
 20
5.892
 10
44.85122
 20
5.96237
 10
44.77253
 20
5.99393
 10
44.68839
 20
6.01749
 10
44.64326
 20
6.02482
 10
44.59482
 20
6.02737
 10
44.54036
 20
6.0213
 10
44.45223
 20
5.96728
 10
43.87051
 20
5.21733
 10
43.8401
 20
5.11853
 10
43.84776
 20
5.06428
 10
43.86229
 20
5.018
 10
43.88061
 20
4.9761
 10
43.92436
 20
4.90046
 10
43.97449
 20
4.83209
 10
44.08056
 20
4.70196
 10
44.17314
 20
4.55696
 10
44.25889
 20
4.40476
 10
44.33844
 20
4.24623
 10
44.41218
 20
4.082
 10
44.48034
 20
3.91251
 10
44.54308
 20
3.73811
 10
44.60051
 20
3.55909
 10
43.85152
 20
2.85575
 10
43.67646
 20
2.9243
 10
43.50634
 20
2.99787
 10
43.34147
 20
3.07654
 10
43.18219
 20
3.16044
 10
43.02898
 20
3.24979
 10
42.88245
 20
3.34492
 10
42.74356
 20
3.44643
 10
42.62034
 20
3.56047
 10
42.55525
 20
3.61479
 10
42.48251
 20
3.6632
 10
42.44185
 20
3.68412
 10
42.39657
 20
3.70152
 10
42.3429
 20
3.71257
 10
42.24239
 20
3.68843
 10
41.45739
 20
3.15495
 10
41.39794
 20
3.07038
 10
41.38847
 20
3.01641
 10
41.38798
 20
2.96791
 10
41.39245
 20
2.9224
 10
41.41069
 20
2.83695
 10
41.43724
 20
2.75643
 10
41.49791
 20
2.59989
 10
41.54116
 20
2.43338
 10
41.57567
 20
2.26212
 10
41.60234
 20
2.08678
 10
41.62172
 20
1.9078
 10
41.63417
 20
1.72554
 10
41.63995
 20
1.54028
 10
41.63924
 20
1.35228
 10
40.70957
 20
0.91481
 10
40.56426
 20
1.03411
 10
40.4252
 20
1.15665
 10
40.29271
 20
1.28242
 10
40.16715
 20
1.41143
 10
40.04905
 20
1.54375
 10
39.93909
 20
1.67951
 10
39.83836
 20
1.81896
 10
39.75642
 20
1.96549
 10
39.7113
 20
2.03728
 10
39.65708
 20
2.1058
 10
39.62487
 20
2.13825
 10
39.58718
 20
2.16879
 10
39.53956
 20
2.19589
 10
39.43651
 20
2.20399
 10
38.52507
 20
1.93919
 10
38.4424
 20
1.87714
 10
38.41671
 20
1.82874
 10
38.40126
 20
1.78276
 10
38.39145
 20
1.7381
 10
38.38239
 20
1.65119
 10
38.38276
 20
1.56641
 10
38.39208
 20
1.39878
 10
38.38176
 20
1.22706
 10
38.36166
 20
1.05352
 10
38.33284
 20
0.87852
 10
38.29597
 20
0.70231
 10
38.25149
 20
0.52512
 10
38.19974
 20
0.34715
 10
38.14097
 20
0.16856
 10
37.12161
 20
0.03979
 10
37.02028
 20
0.19815
 10
36.9259
 20
0.35766
 10
36.83875
 20
0.51822
 10
36.75921
 20
0.67972
 10
36.68777
 20
0.84206
 10
36.62515
 20
1.00515
 10
36.57245
 20
1.16891
 10
36.53979
 20
1.33359
 10
36.51906
 20
1.4158
 10
36.48867
 20
1.49772
 10
36.46807
 20
1.53854
 10
36.44166
 20
1.57923
 10
36.40474
 20
1.61972
 10
36.30924
 20
1.65927
 10
35.36059
 20
1.68908
 10
35.26278
 20
1.65561
 10
35.2234
 20
1.61752
 10
35.19449
 20
1.57856
 10
35.17136
 20
1.53912
 10
35.13589
 20
1.45927
 10
35.11004
 20
1.37852
 10
35.06711
 20
1.21621
 10
35.00422
 20
1.05609
 10
34.93148
 20
0.89725
 10
34.85
 20
0.73972
 10
34.76047
 20
0.58353
 10
34.66342
 20
0.42876
 10
34.5592
 20
0.27549
 10
34.44812
 20
0.12381
 10
33.43887
 20
0.31633
 10
33.39143
 20
0.49825
 10
33.35096
 20
0.67913
 10
33.31769
 20
0.85876
 10
33.29195
 20
1.03693
 10
33.27417
 20
1.2134
 10
33.26501
 20
1.38786
 10
33.26549
 20
1.55989
 10
33.28533
 20
1.7266
 10
33.29102
 20
1.81119
 10
33.28743
 20
1.8985
 10
33.28045
 20
1.94369
 10
33.26791
 20
1.99055
 10
33.24531
 20
2.04046
 10
33.1667
 20
2.10759
 10
32.27369
 20
2.42909
 10
32.17033
 20
2.42748
 10
32.1211
 20
2.40342
 10
32.08157
 20
2.37531
 10
32.04739
 20
2.34494
 10
31.98897
 20
2.27996
 10
31.93943
 20
2.21115
 10
31.84845
 20
2.07006
 10
31.73916
 20
1.9372
 10
31.6209
 20
1.80862
 10
31.49472
 20
1.68397
 10
31.36131
 20
1.5631
 10
31.22118
 20
1.44589
 10
31.0747
 20
1.33233
 10
30.92219
 20
1.22239
 10
30.02182
 20
1.71737
 10
30.03292
 20
1.90505
 10
30.05032
 20
2.08958
 10
30.07419
 20
2.2707
 10
30.10477
 20
2.4481
 10
30.1424
 20
2.62143
 10
30.1876
 20
2.79018
 10
30.24122
 20
2.95364
 10
30.31159
 20
3.10607
 10
30.34315
 20
3.18476
 10
30.36671
 20
3.2689
 10
30.37404
 20
3.31403
 10
30.37659
 20
3.36247
 10
30.37053
 20
3.41693
 10
30.3165
 20
3.50506
 10
29.56655
 20
4.08678
 10
29.46775
 20
4.11719
 10
29.4135
 20
4.10953
 10
29.36722
 20
4.095
 10
29.32532
 20
4.07668
 10
29.24968
 20
4.03293
 10
29.18131
 20
3.9828
 10
29.05118
 20
3.87673
 10
28.90618
 20
3.78415
 10
28.75398
 20
3.6984
 10
28.59546
 20
3.61885
 10
28.43123
 20
3.54511
 10
28.26173
 20
3.47695
 10
28.08733
 20
3.41421
 10
27.90831
 20
3.35678
 10
27.20497
 20
4.10577
 10
27.27352
 20
4.28083
 10
27.34709
 20
4.45095
 10
27.42576
 20
4.61582
 10
27.50966
 20
4.7751
 10
27.59901
 20
4.92831
 10
27.69414
 20
5.07484
 10
27.79565
 20
5.21373
 10
27.90969
 20
5.33695
 10
27.96401
 20
5.40204
 10
28.01242
 20
5.47478
 10
28.03334
 20
5.51544
 10
28.05074
 20
5.56072
 10
28.06179
 20
5.61439
 10
28.03765
 20
5.7149
 10
27.50417
 20
6.4999
 10
27.4196
 20
6.55935
 10
27.36563
 20
6.56882
 10
27.31713
 20
6.56931
 10
27.27162
 20
6.56484
 10
27.18617
 20
6.5466
 10
27.10565
 20
6.52005
 10
26.94911
 20
6.45938
 10
26.7826
 20
6.41613
 10
26.61134
 20
6.38162
 10
26.436
 20
6.35495
 10
26.25702
 20
6.33557
 10
26.07476
 20
6.32312
 10
25.8895
 20
6.31734
 10
25.7015
 20
6.31805
 10
25.26403
 20
7.24772
 10
25.38333
 20
7.39303
 10
25.50587
 20
7.53209
 10
25.63164
 20
7.66458
 10
25.76065
 20
7.79014
 10
25.89297
 20
7.90824
 10
26.02873
 20
8.0182
 10
26.16818
 20
8.11893
 10
26.31471
 20
8.20087
 10
26.3865
 20
8.24599
 10
26.45502
 20
8.30021
 10
26.48747
 20
8.33242
 10
26.51801
 20
8.37011
 10
26.54511
 20
8.41773
 10
26.55321
 20
8.52078
 0
CIRCLE
 8
a
 10
36.15326
 20
11.80403
 40
1.5875
  0
ENDSEC
  0
EOF
