  999
DXF file created by gear template generator.  2014-10-06T18:07:01
  0
SECTION
  2
ENTITIES
 0
LWPOLYLINE
 8
a
 90
720
 70
1
 10
26.63501
 20
13.88406
 10
26.67412
 20
13.77442
 10
26.71253
 20
13.67111
 10
26.75439
 20
13.66714
 10
26.79618
 20
13.6613
 10
26.87928
 20
13.63813
 10
26.96219
 20
13.61129
 10
27.12884
 20
13.57825
 10
27.29449
 20
13.52533
 10
27.45941
 20
13.46133
 10
27.62368
 20
13.38984
 10
27.78723
 20
13.31137
 10
27.94999
 20
13.22633
 10
28.1119
 20
13.13501
 10
28.27288
 20
13.03764
 10
28.15595
 20
12.02707
 10
27.97699
 20
11.96904
 10
27.79851
 20
11.91711
 10
27.62063
 20
11.87148
 10
27.44348
 20
11.83243
 10
27.26723
 20
11.80034
 10
27.09205
 20
11.77569
 10
26.91869
 20
11.76199
 10
26.74891
 20
11.76788
 10
26.66205
 20
11.76068
 10
26.57585
 20
11.75711
 10
26.53384
 20
11.76095
 10
26.49218
 20
11.76666
 10
26.43119
 20
11.67485
 10
26.36808
 20
11.57703
 10
26.13881
 20
10.6643
 10
26.14821
 20
10.54827
 10
26.15858
 20
10.43854
 10
26.19799
 20
10.42388
 10
26.23684
 20
10.40741
 10
26.31111
 20
10.36353
 10
26.38425
 20
10.31614
 10
26.53667
 20
10.2411
 10
26.68298
 20
10.14711
 10
26.82572
 20
10.04261
 10
26.96588
 20
9.93103
 10
27.10355
 20
9.81291
 10
27.23876
 20
9.68864
 10
27.37151
 20
9.55852
 10
27.50181
 20
9.42281
 10
27.12731
 20
8.47694
 10
26.93943
 20
8.46721
 10
26.75358
 20
8.46323
 10
26.56995
 20
8.4652
 10
26.38874
 20
8.47333
 10
26.21019
 20
8.48795
 10
26.0346
 20
8.50948
 10
25.8636
 20
8.54112
 10
25.70112
 20
8.59075
 10
25.61536
 20
8.60627
 10
25.53118
 20
8.62513
 10
25.49159
 20
8.63972
 10
25.45283
 20
8.65601
 10
25.37015
 20
8.58312
 10
25.28387
 20
8.50497
 10
24.82619
 20
7.68268
 10
24.80524
 20
7.56817
 10
24.78685
 20
7.45949
 10
24.82112
 20
7.43513
 10
24.85439
 20
7.40917
 10
24.91478
 20
7.34757
 10
24.97316
 20
7.28286
 10
25.10096
 20
7.17093
 10
25.21796
 20
7.04227
 10
25.32878
 20
6.90438
 10
25.4353
 20
6.76033
 10
25.5377
 20
6.61061
 10
25.63614
 20
6.45558
 10
25.73069
 20
6.29553
 10
25.82143
 20
6.13072
 10
25.21488
 20
5.31401
 10
25.03088
 20
5.35323
 10
24.85034
 20
5.3975
 10
24.67347
 20
5.44692
 10
24.50054
 20
5.50168
 10
24.33185
 20
5.56201
 10
24.16782
 20
5.62826
 10
24.01083
 20
5.70307
 10
23.86674
 20
5.79307
 10
23.78792
 20
5.83026
 10
23.71149
 20
5.87026
 10
23.67702
 20
5.8946
 10
23.6438
 20
5.92037
 10
23.54507
 20
5.87136
 10
23.44151
 20
5.8182
 10
22.7866
 20
5.14238
 10
22.73672
 20
5.0372
 10
22.69083
 20
4.93699
 10
22.71763
 20
4.90458
 10
22.74304
 20
4.8709
 10
22.78543
 20
4.79576
 10
22.82507
 20
4.71815
 10
22.91955
 20
4.57695
 10
22.99926
 20
4.4224
 10
23.07063
 20
4.26053
 10
23.13622
 20
4.09382
 10
23.19639
 20
3.92269
 10
23.25135
 20
3.74746
 10
23.30126
 20
3.5684
 10
23.34624
 20
3.38573
 10
22.54898
 20
2.75382
 10
22.3814
 20
2.83933
 10
22.21847
 20
2.92882
 10
22.06042
 20
3.02234
 10
21.90755
 20
3.11999
 10
21.76023
 20
3.22192
 10
21.61893
 20
3.32836
 10
21.48666
 20
3.44126
 10
21.37077
 20
3.56548
 10
21.30426
 20
3.6218
 10
21.24079
 20
3.68023
 10
21.2138
 20
3.71266
 10
21.18837
 20
3.74615
 10
21.08033
 20
3.72436
 10
20.96653
 20
3.69982
 10
20.15902
 20
3.21653
 10
20.08362
 20
3.12784
 10
20.01336
 20
3.04292
 10
20.03086
 20
3.00469
 10
20.04669
 20
2.96557
 10
20.06818
 20
2.88202
 10
20.08639
 20
2.79679
 10
20.1411
 20
2.63596
 10
20.17809
 20
2.46604
 10
20.20513
 20
2.29121
 10
20.22535
 20
2.11321
 10
20.23917
 20
1.93234
 10
20.2469
 20
1.74886
 10
20.24877
 20
1.56298
 10
20.24494
 20
1.37488
 10
19.3113
 20
0.97086
 10
19.17156
 20
1.09683
 10
19.03734
 20
1.22543
 10
18.90888
 20
1.35667
 10
18.7865
 20
1.49056
 10
18.67057
 20
1.62715
 10
18.56164
 20
1.76654
 10
18.4631
 20
1.90982
 10
18.38331
 20
2.05981
 10
18.33364
 20
2.13142
 10
18.28745
 20
2.20428
 10
18.26977
 20
2.2426
 10
18.25388
 20
2.28152
 10
18.14388
 20
2.28844
 10
18.02761
 20
2.29419
 10
17.12253
 20
2.03637
 10
17.02675
 20
1.97022
 10
16.9369
 20
1.90637
 10
16.94391
 20
1.86491
 10
16.94907
 20
1.82304
 10
16.94821
 20
1.73677
 10
16.94374
 20
1.64973
 10
16.95496
 20
1.48022
 10
16.94671
 20
1.30651
 10
16.92758
 20
1.13065
 10
16.90104
 20
0.95347
 10
16.86758
 20
0.77519
 10
16.82756
 20
0.59596
 10
16.78125
 20
0.41593
 10
16.72887
 20
0.23524
 10
15.72247
 20
0.08663
 10
15.6201
 20
0.24447
 10
15.52374
 20
0.40343
 10
15.43362
 20
0.56344
 10
15.35006
 20
0.72445
 10
15.27344
 20
0.88638
 10
15.20429
 20
1.04921
 10
15.14619
 20
1.21312
 10
15.10794
 20
1.37865
 10
15.0785
 20
1.46068
 10
15.05274
 20
1.54301
 10
15.04559
 20
1.58459
 10
15.04031
 20
1.62631
 10
14.93584
 20
1.66146
 10
14.82503
 20
1.6971
 10
13.88406
 20
1.68232
 10
13.77442
 20
1.64321
 10
13.67111
 20
1.6048
 10
13.66714
 20
1.56294
 10
13.6613
 20
1.52115
 10
13.63813
 20
1.43805
 10
13.61129
 20
1.35514
 10
13.57825
 20
1.18849
 10
13.52533
 20
1.02284
 10
13.46133
 20
0.85792
 10
13.38984
 20
0.69365
 10
13.31137
 20
0.5301
 10
13.22633
 20
0.36734
 10
13.13501
 20
0.20543
 10
13.03764
 20
0.04445
 10
12.02707
 20
0.16138
 10
11.96904
 20
0.34034
 10
11.91711
 20
0.51882
 10
11.87148
 20
0.6967
 10
11.83243
 20
0.87385
 10
11.80034
 20
1.0501
 10
11.77569
 20
1.22528
 10
11.76199
 20
1.39864
 10
11.76788
 20
1.56842
 10
11.76068
 20
1.65528
 10
11.75711
 20
1.74148
 10
11.76095
 20
1.78349
 10
11.76666
 20
1.82515
 10
11.67485
 20
1.88614
 10
11.57703
 20
1.94925
 10
10.6643
 20
2.17852
 10
10.54827
 20
2.16912
 10
10.43854
 20
2.15875
 10
10.42388
 20
2.11934
 10
10.40741
 20
2.0805
 10
10.36353
 20
2.00622
 10
10.31614
 20
1.93308
 10
10.2411
 20
1.78066
 10
10.14711
 20
1.63435
 10
10.04261
 20
1.49161
 10
9.93103
 20
1.35145
 10
9.81291
 20
1.21378
 10
9.68864
 20
1.07857
 10
9.55852
 20
0.94582
 10
9.42281
 20
0.81552
 10
8.47694
 20
1.19002
 10
8.46721
 20
1.3779
 10
8.46323
 20
1.56375
 10
8.4652
 20
1.74738
 10
8.47333
 20
1.92859
 10
8.48795
 20
2.10715
 10
8.50948
 20
2.28273
 10
8.54112
 20
2.45373
 10
8.59075
 20
2.61621
 10
8.60627
 20
2.70197
 10
8.62513
 20
2.78615
 10
8.63972
 20
2.82574
 10
8.65601
 20
2.8645
 10
8.58312
 20
2.94718
 10
8.50497
 20
3.03346
 10
7.68268
 20
3.49114
 10
7.56817
 20
3.51209
 10
7.45949
 20
3.53048
 10
7.43513
 20
3.49621
 10
7.40917
 20
3.46294
 10
7.34757
 20
3.40255
 10
7.28286
 20
3.34417
 10
7.17093
 20
3.21637
 10
7.04227
 20
3.09937
 10
6.90438
 20
2.98855
 10
6.76033
 20
2.88204
 10
6.61061
 20
2.77963
 10
6.45558
 20
2.68119
 10
6.29553
 20
2.58664
 10
6.13072
 20
2.49591
 10
5.31401
 20
3.10245
 10
5.35323
 20
3.28645
 10
5.3975
 20
3.46699
 10
5.44692
 20
3.64386
 10
5.50168
 20
3.81679
 10
5.56201
 20
3.98548
 10
5.62826
 20
4.14951
 10
5.70307
 20
4.3065
 10
5.79307
 20
4.45059
 10
5.83026
 20
4.52941
 10
5.87026
 20
4.60584
 10
5.8946
 20
4.64031
 10
5.92037
 20
4.67353
 10
5.87136
 20
4.77226
 10
5.8182
 20
4.87582
 10
5.14238
 20
5.53073
 10
5.0372
 20
5.58061
 10
4.93699
 20
5.6265
 10
4.90458
 20
5.5997
 10
4.8709
 20
5.57429
 10
4.79576
 20
5.5319
 10
4.71815
 20
5.49226
 10
4.57695
 20
5.39778
 10
4.4224
 20
5.31807
 10
4.26053
 20
5.2467
 10
4.09382
 20
5.18111
 10
3.92269
 20
5.12094
 10
3.74746
 20
5.06599
 10
3.5684
 20
5.01607
 10
3.38573
 20
4.97109
 10
2.75382
 20
5.76835
 10
2.83933
 20
5.93593
 10
2.92882
 20
6.09886
 10
3.02234
 20
6.25691
 10
3.11999
 20
6.40978
 10
3.22192
 20
6.5571
 10
3.32836
 20
6.6984
 10
3.44126
 20
6.83067
 10
3.56548
 20
6.94656
 10
3.6218
 20
7.01307
 10
3.68023
 20
7.07654
 10
3.71266
 20
7.10353
 10
3.74615
 20
7.12896
 10
3.72436
 20
7.23701
 10
3.69982
 20
7.3508
 10
3.21653
 20
8.15831
 10
3.12784
 20
8.23371
 10
3.04292
 20
8.30397
 10
3.00469
 20
8.28647
 10
2.96557
 20
8.27064
 10
2.88202
 20
8.24915
 10
2.79679
 20
8.23094
 10
2.63596
 20
8.17623
 10
2.46604
 20
8.13924
 10
2.29121
 20
8.1122
 10
2.11321
 20
8.09198
 10
1.93234
 20
8.07816
 10
1.74886
 20
8.07043
 10
1.56298
 20
8.06856
 10
1.37488
 20
8.07239
 10
0.97086
 20
9.00603
 10
1.09683
 20
9.14577
 10
1.22543
 20
9.27999
 10
1.35667
 20
9.40845
 10
1.49056
 20
9.53083
 10
1.62715
 20
9.64676
 10
1.76654
 20
9.75569
 10
1.90982
 20
9.85423
 10
2.05981
 20
9.93402
 10
2.13142
 20
9.98369
 10
2.20428
 20
10.02988
 10
2.2426
 20
10.04756
 10
2.28152
 20
10.06345
 10
2.28844
 20
10.17345
 10
2.29419
 20
10.28972
 10
2.03637
 20
11.1948
 10
1.97022
 20
11.29058
 10
1.90637
 20
11.38043
 10
1.86491
 20
11.37342
 10
1.82304
 20
11.36826
 10
1.73677
 20
11.36912
 10
1.64973
 20
11.3736
 10
1.48022
 20
11.36237
 10
1.30651
 20
11.37062
 10
1.13065
 20
11.38975
 10
0.95347
 20
11.41629
 10
0.77519
 20
11.44975
 10
0.59596
 20
11.48977
 10
0.41593
 20
11.53608
 10
0.23524
 20
11.58846
 10
0.08663
 20
12.59486
 10
0.24447
 20
12.69723
 10
0.40343
 20
12.79359
 10
0.56344
 20
12.88371
 10
0.72445
 20
12.96727
 10
0.88638
 20
13.04389
 10
1.04921
 20
13.11304
 10
1.21312
 20
13.17114
 10
1.37865
 20
13.20939
 10
1.46068
 20
13.23883
 10
1.54301
 20
13.26459
 10
1.58459
 20
13.27175
 10
1.62631
 20
13.27702
 10
1.66146
 20
13.38149
 10
1.6971
 20
13.4923
 10
1.68232
 20
14.43327
 10
1.64321
 20
14.54291
 10
1.6048
 20
14.64622
 10
1.56294
 20
14.65019
 10
1.52115
 20
14.65603
 10
1.43805
 20
14.6792
 10
1.35514
 20
14.70604
 10
1.18849
 20
14.73908
 10
1.02284
 20
14.792
 10
0.85792
 20
14.856
 10
0.69365
 20
14.92749
 10
0.5301
 20
15.00596
 10
0.36734
 20
15.091
 10
0.20543
 20
15.18232
 10
0.04445
 20
15.27969
 10
0.16138
 20
16.29026
 10
0.34034
 20
16.34829
 10
0.51882
 20
16.40022
 10
0.6967
 20
16.44585
 10
0.87385
 20
16.4849
 10
1.0501
 20
16.51699
 10
1.22528
 20
16.54164
 10
1.39864
 20
16.55534
 10
1.56842
 20
16.54945
 10
1.65528
 20
16.55665
 10
1.74148
 20
16.56022
 10
1.78349
 20
16.55638
 10
1.82515
 20
16.55067
 10
1.88614
 20
16.64248
 10
1.94925
 20
16.7403
 10
2.17852
 20
17.65303
 10
2.16912
 20
17.76906
 10
2.15875
 20
17.87879
 10
2.11934
 20
17.89345
 10
2.0805
 20
17.90992
 10
2.00622
 20
17.9538
 10
1.93308
 20
18.00119
 10
1.78066
 20
18.07623
 10
1.63435
 20
18.17022
 10
1.49161
 20
18.27472
 10
1.35145
 20
18.3863
 10
1.21378
 20
18.50442
 10
1.07857
 20
18.62869
 10
0.94582
 20
18.75881
 10
0.81552
 20
18.89452
 10
1.19002
 20
19.84039
 10
1.3779
 20
19.85012
 10
1.56375
 20
19.8541
 10
1.74738
 20
19.85213
 10
1.92859
 20
19.844
 10
2.10715
 20
19.82938
 10
2.28273
 20
19.80785
 10
2.45373
 20
19.77621
 10
2.61621
 20
19.72658
 10
2.70197
 20
19.71106
 10
2.78615
 20
19.6922
 10
2.82574
 20
19.67761
 10
2.8645
 20
19.66132
 10
2.94718
 20
19.73421
 10
3.03346
 20
19.81236
 10
3.49114
 20
20.63465
 10
3.51209
 20
20.74916
 10
3.53048
 20
20.85784
 10
3.49621
 20
20.8822
 10
3.46294
 20
20.90816
 10
3.40255
 20
20.96976
 10
3.34417
 20
21.03447
 10
3.21637
 20
21.1464
 10
3.09937
 20
21.27506
 10
2.98855
 20
21.41295
 10
2.88204
 20
21.557
 10
2.77963
 20
21.70672
 10
2.68119
 20
21.86175
 10
2.58664
 20
22.0218
 10
2.49591
 20
22.18661
 10
3.10245
 20
23.00332
 10
3.28645
 20
22.9641
 10
3.46699
 20
22.91983
 10
3.64386
 20
22.87041
 10
3.81679
 20
22.81565
 10
3.98548
 20
22.75532
 10
4.14951
 20
22.68908
 10
4.3065
 20
22.61426
 10
4.45059
 20
22.52426
 10
4.52941
 20
22.48707
 10
4.60584
 20
22.44707
 10
4.64031
 20
22.42273
 10
4.67353
 20
22.39696
 10
4.77226
 20
22.44597
 10
4.87582
 20
22.49913
 10
5.53073
 20
23.17495
 10
5.58061
 20
23.28013
 10
5.6265
 20
23.38034
 10
5.5997
 20
23.41275
 10
5.57429
 20
23.44643
 10
5.5319
 20
23.52157
 10
5.49226
 20
23.59918
 10
5.39778
 20
23.74038
 10
5.31807
 20
23.89493
 10
5.2467
 20
24.0568
 10
5.18111
 20
24.22351
 10
5.12094
 20
24.39464
 10
5.06599
 20
24.56987
 10
5.01607
 20
24.74893
 10
4.97109
 20
24.9316
 10
5.76835
 20
25.56351
 10
5.93593
 20
25.478
 10
6.09886
 20
25.38851
 10
6.25691
 20
25.295
 10
6.40978
 20
25.19734
 10
6.5571
 20
25.09541
 10
6.6984
 20
24.98897
 10
6.83067
 20
24.87607
 10
6.94656
 20
24.75185
 10
7.01307
 20
24.69553
 10
7.07654
 20
24.6371
 10
7.10353
 20
24.60467
 10
7.12896
 20
24.57118
 10
7.23701
 20
24.59297
 10
7.3508
 20
24.61751
 10
8.15831
 20
25.1008
 10
8.23371
 20
25.18949
 10
8.30397
 20
25.27441
 10
8.28647
 20
25.31264
 10
8.27064
 20
25.35176
 10
8.24915
 20
25.43531
 10
8.23094
 20
25.52054
 10
8.17623
 20
25.68137
 10
8.13924
 20
25.85129
 10
8.1122
 20
26.02612
 10
8.09198
 20
26.20412
 10
8.07816
 20
26.38499
 10
8.07043
 20
26.56847
 10
8.06856
 20
26.75435
 10
8.07239
 20
26.94245
 10
9.00603
 20
27.34647
 10
9.14577
 20
27.2205
 10
9.27999
 20
27.0919
 10
9.40845
 20
26.96066
 10
9.53083
 20
26.82677
 10
9.64676
 20
26.69018
 10
9.75569
 20
26.55079
 10
9.85423
 20
26.40751
 10
9.93402
 20
26.25752
 10
9.98369
 20
26.18591
 10
10.02988
 20
26.11305
 10
10.04756
 20
26.07473
 10
10.06345
 20
26.03581
 10
10.17345
 20
26.02889
 10
10.28972
 20
26.02314
 10
11.1948
 20
26.28096
 10
11.29058
 20
26.34711
 10
11.38043
 20
26.41096
 10
11.37342
 20
26.45242
 10
11.36826
 20
26.49429
 10
11.36912
 20
26.58056
 10
11.3736
 20
26.6676
 10
11.36237
 20
26.83711
 10
11.37062
 20
27.01082
 10
11.38975
 20
27.18668
 10
11.41629
 20
27.36386
 10
11.44975
 20
27.54214
 10
11.48977
 20
27.72137
 10
11.53608
 20
27.9014
 10
11.58846
 20
28.08209
 10
12.59486
 20
28.23071
 10
12.69723
 20
28.07286
 10
12.79359
 20
27.9139
 10
12.88371
 20
27.75389
 10
12.96727
 20
27.59289
 10
13.04389
 20
27.43095
 10
13.11304
 20
27.26812
 10
13.17114
 20
27.10421
 10
13.20939
 20
26.93868
 10
13.23883
 20
26.85665
 10
13.26459
 20
26.77432
 10
13.27175
 20
26.73274
 10
13.27702
 20
26.69102
 10
13.38149
 20
26.65587
 10
13.4923
 20
26.62023
 10
14.43327
 20
26.63501
 10
14.54291
 20
26.67412
 10
14.64622
 20
26.71253
 10
14.65019
 20
26.75439
 10
14.65603
 20
26.79618
 10
14.6792
 20
26.87928
 10
14.70604
 20
26.96219
 10
14.73908
 20
27.12884
 10
14.792
 20
27.29449
 10
14.856
 20
27.45941
 10
14.92749
 20
27.62368
 10
15.00596
 20
27.78723
 10
15.091
 20
27.94999
 10
15.18232
 20
28.1119
 10
15.27969
 20
28.27288
 10
16.29026
 20
28.15595
 10
16.34829
 20
27.97699
 10
16.40022
 20
27.79851
 10
16.44585
 20
27.62063
 10
16.4849
 20
27.44348
 10
16.51699
 20
27.26723
 10
16.54164
 20
27.09205
 10
16.55534
 20
26.91869
 10
16.54945
 20
26.74891
 10
16.55665
 20
26.66205
 10
16.56022
 20
26.57585
 10
16.55638
 20
26.53384
 10
16.55067
 20
26.49218
 10
16.64248
 20
26.43119
 10
16.7403
 20
26.36808
 10
17.65303
 20
26.13881
 10
17.76906
 20
26.14821
 10
17.87879
 20
26.15858
 10
17.89345
 20
26.19799
 10
17.90992
 20
26.23684
 10
17.9538
 20
26.31111
 10
18.00119
 20
26.38425
 10
18.07623
 20
26.53667
 10
18.17022
 20
26.68298
 10
18.27472
 20
26.82572
 10
18.3863
 20
26.96588
 10
18.50442
 20
27.10355
 10
18.62869
 20
27.23876
 10
18.75881
 20
27.37151
 10
18.89452
 20
27.50181
 10
19.84039
 20
27.12731
 10
19.85012
 20
26.93943
 10
19.8541
 20
26.75358
 10
19.85213
 20
26.56995
 10
19.844
 20
26.38874
 10
19.82938
 20
26.21019
 10
19.80785
 20
26.0346
 10
19.77621
 20
25.8636
 10
19.72658
 20
25.70112
 10
19.71106
 20
25.61536
 10
19.6922
 20
25.53118
 10
19.67761
 20
25.49159
 10
19.66132
 20
25.45283
 10
19.73421
 20
25.37015
 10
19.81236
 20
25.28387
 10
20.63465
 20
24.82619
 10
20.74916
 20
24.80524
 10
20.85784
 20
24.78685
 10
20.8822
 20
24.82112
 10
20.90816
 20
24.85439
 10
20.96976
 20
24.91478
 10
21.03447
 20
24.97316
 10
21.1464
 20
25.10096
 10
21.27506
 20
25.21796
 10
21.41295
 20
25.32878
 10
21.557
 20
25.4353
 10
21.70672
 20
25.5377
 10
21.86175
 20
25.63614
 10
22.0218
 20
25.73069
 10
22.18661
 20
25.82143
 10
23.00332
 20
25.21488
 10
22.9641
 20
25.03088
 10
22.91983
 20
24.85034
 10
22.87041
 20
24.67347
 10
22.81565
 20
24.50054
 10
22.75532
 20
24.33185
 10
22.68908
 20
24.16782
 10
22.61426
 20
24.01083
 10
22.52426
 20
23.86674
 10
22.48707
 20
23.78792
 10
22.44707
 20
23.71149
 10
22.42273
 20
23.67702
 10
22.39696
 20
23.6438
 10
22.44597
 20
23.54507
 10
22.49913
 20
23.44151
 10
23.17495
 20
22.7866
 10
23.28013
 20
22.73672
 10
23.38034
 20
22.69083
 10
23.41275
 20
22.71763
 10
23.44643
 20
22.74304
 10
23.52157
 20
22.78543
 10
23.59918
 20
22.82507
 10
23.74038
 20
22.91955
 10
23.89493
 20
22.99926
 10
24.0568
 20
23.07063
 10
24.22351
 20
23.13622
 10
24.39464
 20
23.19639
 10
24.56987
 20
23.25135
 10
24.74893
 20
23.30126
 10
24.9316
 20
23.34624
 10
25.56351
 20
22.54898
 10
25.478
 20
22.3814
 10
25.38851
 20
22.21847
 10
25.295
 20
22.06042
 10
25.19734
 20
21.90755
 10
25.09541
 20
21.76023
 10
24.98897
 20
21.61893
 10
24.87607
 20
21.48666
 10
24.75185
 20
21.37077
 10
24.69553
 20
21.30426
 10
24.6371
 20
21.24079
 10
24.60467
 20
21.2138
 10
24.57118
 20
21.18837
 10
24.59297
 20
21.08033
 10
24.61751
 20
20.96653
 10
25.1008
 20
20.15902
 10
25.18949
 20
20.08362
 10
25.27441
 20
20.01336
 10
25.31264
 20
20.03086
 10
25.35176
 20
20.04669
 10
25.43531
 20
20.06818
 10
25.52054
 20
20.08639
 10
25.68137
 20
20.1411
 10
25.85129
 20
20.17809
 10
26.02612
 20
20.20513
 10
26.20412
 20
20.22535
 10
26.38499
 20
20.23917
 10
26.56847
 20
20.2469
 10
26.75435
 20
20.24877
 10
26.94245
 20
20.24494
 10
27.34647
 20
19.3113
 10
27.2205
 20
19.17156
 10
27.0919
 20
19.03734
 10
26.96066
 20
18.90888
 10
26.82677
 20
18.7865
 10
26.69018
 20
18.67057
 10
26.55079
 20
18.56164
 10
26.40751
 20
18.4631
 10
26.25752
 20
18.38331
 10
26.18591
 20
18.33364
 10
26.11305
 20
18.28745
 10
26.07473
 20
18.26977
 10
26.03581
 20
18.25388
 10
26.02889
 20
18.14388
 10
26.02314
 20
18.02761
 10
26.28096
 20
17.12253
 10
26.34711
 20
17.02675
 10
26.41096
 20
16.9369
 10
26.45242
 20
16.94391
 10
26.49429
 20
16.94907
 10
26.58056
 20
16.94821
 10
26.6676
 20
16.94374
 10
26.83711
 20
16.95496
 10
27.01082
 20
16.94671
 10
27.18668
 20
16.92758
 10
27.36386
 20
16.90104
 10
27.54214
 20
16.86758
 10
27.72137
 20
16.82756
 10
27.9014
 20
16.78125
 10
28.08209
 20
16.72887
 10
28.23071
 20
15.72247
 10
28.07286
 20
15.6201
 10
27.9139
 20
15.52374
 10
27.75389
 20
15.43362
 10
27.59289
 20
15.35006
 10
27.43095
 20
15.27344
 10
27.26812
 20
15.20429
 10
27.10421
 20
15.14619
 10
26.93868
 20
15.10794
 10
26.85665
 20
15.0785
 10
26.77432
 20
15.05274
 10
26.73274
 20
15.04559
 10
26.69102
 20
15.04031
 10
26.65587
 20
14.93584
 10
26.62023
 20
14.82503
 0
CIRCLE
 8
a
 10
14.15867
 20
14.15867
 40
0.5
 0
LWPOLYLINE
 8
a
 90
540
 70
1
 10
30.85955
 20
13.30702
 10
30.81952
 20
13.39061
 10
30.78734
 20
13.42102
 10
30.7565
 20
13.44213
 10
30.72636
 20
13.45819
 10
30.69668
 20
13.4709
 10
30.66732
 20
13.4811
 10
30.60932
 20
13.49595
 10
30.552
 20
13.50519
 10
30.49517
 20
13.51013
 10
30.38262
 20
13.50991
 10
30.27119
 20
13.49901
 10
30.15833
 20
13.50204
 10
30.04384
 20
13.52202
 10
29.92881
 20
13.54936
 10
29.81344
 20
13.58319
 10
29.69788
 20
13.62301
 10
29.58226
 20
13.66846
 10
29.46673
 20
13.71928
 10
29.35138
 20
13.77527
 10
29.23635
 20
13.83628
 10
29.12173
 20
13.90218
 10
29.15258
 20
14.88367
 10
29.2711
 20
14.94225
 10
29.38974
 20
14.99591
 10
29.50837
 20
15.04455
 10
29.62688
 20
15.08801
 10
29.74511
 20
15.12611
 10
29.86294
 20
15.1586
 10
29.98021
 20
15.18512
 10
30.09673
 20
15.20518
 10
30.21226
 20
15.21794
 10
30.32509
 20
15.21387
 10
30.43561
 20
15.19599
 10
30.54792
 20
15.18871
 10
30.60495
 20
15.19007
 10
30.66274
 20
15.1957
 10
30.72156
 20
15.20687
 10
30.75149
 20
15.21522
 10
30.78191
 20
15.22603
 10
30.813
 20
15.24017
 10
30.84511
 20
15.2593
 10
30.87913
 20
15.28763
 10
30.92434
 20
15.36854
 10
31.04396
 20
15.83356
 10
31.20166
 20
16.28708
 10
31.20879
 20
16.3795
 10
31.19613
 20
16.42192
 10
31.17997
 20
16.45562
 10
31.1619
 20
16.4846
 10
31.14255
 20
16.51045
 10
31.12223
 20
16.53396
 10
31.07942
 20
16.57582
 10
31.0344
 20
16.61249
 10
30.98765
 20
16.64517
 10
30.89007
 20
16.70127
 10
30.78813
 20
16.74754
 10
30.6919
 20
16.80658
 10
30.60273
 20
16.88114
 10
30.51678
 20
16.96233
 10
30.43379
 20
17.04932
 10
30.35362
 20
17.14158
 10
30.27622
 20
17.23875
 10
30.20157
 20
17.34053
 10
30.12968
 20
17.44669
 10
30.06056
 20
17.55704
 10
29.99425
 20
17.67142
 10
30.51171
 20
18.50599
 10
30.64364
 20
18.49746
 10
30.77322
 20
18.48461
 10
30.90027
 20
18.46742
 10
31.02463
 20
18.44581
 10
31.14608
 20
18.41969
 10
31.26437
 20
18.3889
 10
31.37919
 20
18.35324
 10
31.49012
 20
18.31235
 10
31.59655
 20
18.26564
 10
31.69223
 20
18.2057
 10
31.779
 20
18.13496
 10
31.87263
 20
18.0725
 10
31.92269
 20
18.04516
 10
31.97555
 20
18.02114
 10
32.03208
 20
18.0014
 10
32.06218
 20
17.99366
 10
32.09393
 20
17.98782
 10
32.12793
 20
17.98452
 10
32.1653
 20
17.98503
 10
32.20893
 20
17.99255
 10
32.28853
 20
18.04002
 10
32.62464
 20
18.38293
 10
32.98797
 20
18.69684
 10
33.04035
 20
18.77331
 10
33.05059
 20
18.81638
 10
33.05345
 20
18.85365
 10
33.0523
 20
18.88778
 10
33.04846
 20
18.91984
 10
33.04262
 20
18.95036
 10
33.02648
 20
19.00802
 10
33.00582
 20
19.06228
 10
32.98168
 20
19.11396
 10
32.92522
 20
19.21133
 10
32.86007
 20
19.30237
 10
32.80625
 20
19.40163
 10
32.76631
 20
19.51078
 10
32.73247
 20
19.62406
 10
32.70409
 20
19.7409
 10
32.6808
 20
19.86088
 10
32.66235
 20
19.98373
 10
32.64859
 20
20.1092
 10
32.63941
 20
20.23709
 10
32.63473
 20
20.36721
 10
32.63449
 20
20.49942
 10
33.49991
 20
20.96345
 10
33.6099
 20
20.8901
 10
33.71569
 20
20.81418
 10
33.81713
 20
20.73576
 10
33.91402
 20
20.65487
 10
34.00613
 20
20.57152
 10
34.09318
 20
20.48572
 10
34.17479
 20
20.39743
 10
34.25042
 20
20.30655
 10
34.31923
 20
20.21288
 10
34.37212
 20
20.11313
 10
34.4119
 20
20.00848
 10
34.46175
 20
19.90757
 10
34.49144
 20
19.85886
 10
34.52521
 20
19.81163
 10
34.5643
 20
19.76628
 10
34.58649
 20
19.74452
 10
34.61107
 20
19.72359
 10
34.63886
 20
19.70373
 10
34.67148
 20
19.68549
 10
34.71302
 20
19.67019
 10
34.8057
 20
19.6715
 10
35.26823
 20
19.80042
 10
35.73984
 20
19.8906
 10
35.82344
 20
19.93063
 10
35.85384
 20
19.96281
 10
35.87495
 20
19.99366
 10
35.89102
 20
20.0238
 10
35.90372
 20
20.05348
 10
35.91393
 20
20.08283
 10
35.92877
 20
20.14083
 10
35.93802
 20
20.19816
 10
35.94295
 20
20.25498
 10
35.94274
 20
20.36753
 10
35.93184
 20
20.47896
 10
35.93486
 20
20.59182
 10
35.95485
 20
20.70632
 10
35.98218
 20
20.82135
 10
36.01602
 20
20.93672
 10
36.05584
 20
21.05228
 10
36.10129
 20
21.16789
 10
36.1521
 20
21.28343
 10
36.2081
 20
21.39877
 10
36.26911
 20
21.51381
 10
36.33501
 20
21.62842
 10
37.31649
 20
21.59758
 10
37.37507
 20
21.47905
 10
37.42873
 20
21.36041
 10
37.47737
 20
21.24178
 10
37.52084
 20
21.12328
 10
37.55894
 20
21.00504
 10
37.59142
 20
20.88721
 10
37.61795
 20
20.76994
 10
37.638
 20
20.65342
 10
37.65076
 20
20.53789
 10
37.64669
 20
20.42507
 10
37.62882
 20
20.31455
 10
37.62154
 20
20.20223
 10
37.62289
 20
20.14521
 10
37.62852
 20
20.08742
 10
37.63969
 20
20.0286
 10
37.64804
 20
19.99866
 10
37.65885
 20
19.96824
 10
37.673
 20
19.93715
 10
37.69212
 20
19.90504
 10
37.72045
 20
19.87102
 10
37.80137
 20
19.82581
 10
38.26639
 20
19.7062
 10
38.71991
 20
19.54849
 10
38.81232
 20
19.54136
 10
38.85474
 20
19.55403
 10
38.88844
 20
19.57019
 10
38.91743
 20
19.58825
 10
38.94327
 20
19.60761
 10
38.96679
 20
19.62792
 10
39.00864
 20
19.67073
 10
39.04531
 20
19.71575
 10
39.078
 20
19.7625
 10
39.13409
 20
19.86008
 10
39.18036
 20
19.96203
 10
39.23941
 20
20.05825
 10
39.31397
 20
20.14742
 10
39.39515
 20
20.23337
 10
39.48214
 20
20.31637
 10
39.57441
 20
20.39653
 10
39.67157
 20
20.47393
 10
39.77335
 20
20.54858
 10
39.87951
 20
20.62048
 10
39.98987
 20
20.6896
 10
40.10425
 20
20.7559
 10
40.93882
 20
20.23845
 10
40.93028
 20
20.10652
 10
40.91744
 20
19.97694
 10
40.90024
 20
19.84988
 10
40.87863
 20
19.72552
 10
40.85251
 20
19.60408
 10
40.82173
 20
19.48579
 10
40.78607
 20
19.37097
 10
40.74518
 20
19.26003
 10
40.69846
 20
19.1536
 10
40.63852
 20
19.05793
 10
40.56778
 20
18.97115
 10
40.50532
 20
18.87752
 10
40.47798
 20
18.82746
 10
40.45396
 20
18.7746
 10
40.43423
 20
18.71807
 10
40.42649
 20
18.68797
 10
40.42064
 20
18.65622
 10
40.41734
 20
18.62223
 10
40.41785
 20
18.58486
 10
40.42537
 20
18.54123
 10
40.47285
 20
18.46162
 10
40.81576
 20
18.12552
 10
41.12966
 20
17.76218
 10
41.20613
 20
17.7098
 10
41.24921
 20
17.69956
 10
41.28647
 20
17.6967
 10
41.3206
 20
17.69786
 10
41.35266
 20
17.7017
 10
41.38319
 20
17.70753
 10
41.44084
 20
17.72368
 10
41.49511
 20
17.74433
 10
41.54679
 20
17.76848
 10
41.64415
 20
17.82494
 10
41.7352
 20
17.89009
 10
41.83445
 20
17.9439
 10
41.9436
 20
17.98384
 10
42.05689
 20
18.01768
 10
42.17372
 20
18.04606
 10
42.29371
 20
18.06936
 10
42.41655
 20
18.0878
 10
42.54202
 20
18.10156
 10
42.66991
 20
18.11075
 10
42.80004
 20
18.11543
 10
42.93225
 20
18.11566
 10
43.39628
 20
17.25025
 10
43.32292
 20
17.14026
 10
43.24701
 20
17.03446
 10
43.16859
 20
16.93302
 10
43.08769
 20
16.83613
 10
43.00435
 20
16.74402
 10
42.91854
 20
16.65697
 10
42.83025
 20
16.57536
 10
42.73937
 20
16.49973
 10
42.6457
 20
16.43092
 10
42.54595
 20
16.37803
 10
42.4413
 20
16.33825
 10
42.3404
 20
16.2884
 10
42.29169
 20
16.25871
 10
42.24445
 20
16.22495
 10
42.1991
 20
16.18586
 10
42.17735
 20
16.16366
 10
42.15641
 20
16.13909
 10
42.13656
 20
16.1113
 10
42.11831
 20
16.07868
 10
42.10301
 20
16.03713
 10
42.10432
 20
15.94445
 10
42.23324
 20
15.48193
 10
42.32342
 20
15.01031
 10
42.36346
 20
14.92672
 10
42.39564
 20
14.89631
 10
42.42648
 20
14.8752
 10
42.45662
 20
14.85914
 10
42.4863
 20
14.84644
 10
42.51565
 20
14.83623
 10
42.57366
 20
14.82138
 10
42.63098
 20
14.81214
 10
42.68781
 20
14.8072
 10
42.80036
 20
14.80742
 10
42.91178
 20
14.81832
 10
43.02464
 20
14.81529
 10
43.13914
 20
14.79531
 10
43.25417
 20
14.76797
 10
43.36954
 20
14.73414
 10
43.4851
 20
14.69432
 10
43.60071
 20
14.64887
 10
43.71625
 20
14.59805
 10
43.8316
 20
14.54206
 10
43.94663
 20
14.48105
 10
44.06124
 20
14.41515
 10
44.0304
 20
13.43366
 10
43.91187
 20
13.37509
 10
43.79323
 20
13.32142
 10
43.6746
 20
13.27278
 10
43.5561
 20
13.22932
 10
43.43786
 20
13.19122
 10
43.32003
 20
13.15873
 10
43.20276
 20
13.13221
 10
43.08625
 20
13.11215
 10
42.97072
 20
13.09939
 10
42.85789
 20
13.10346
 10
42.74737
 20
13.12134
 10
42.63505
 20
13.12862
 10
42.57803
 20
13.12726
 10
42.52024
 20
13.12163
 10
42.46142
 20
13.11046
 10
42.43148
 20
13.10211
 10
42.40106
 20
13.0913
 10
42.36997
 20
13.07716
 10
42.33787
 20
13.05803
 10
42.30384
 20
13.0297
 10
42.25864
 20
12.94879
 10
42.13902
 20
12.48377
 10
41.98131
 20
12.03025
 10
41.97419
 20
11.93783
 10
41.98685
 20
11.89541
 10
42.00301
 20
11.86171
 10
42.02108
 20
11.83273
 10
42.04043
 20
11.80689
 10
42.06075
 20
11.78337
 10
42.10355
 20
11.74151
 10
42.14858
 20
11.70484
 10
42.19532
 20
11.67216
 10
42.2929
 20
11.61607
 10
42.39485
 20
11.56979
 10
42.49108
 20
11.51075
 10
42.58024
 20
11.43619
 10
42.66619
 20
11.355
 10
42.74919
 20
11.26801
 10
42.82936
 20
11.17575
 10
42.90675
 20
11.07858
 10
42.9814
 20
10.9768
 10
43.0533
 20
10.87064
 10
43.12242
 20
10.76029
 10
43.18873
 20
10.64591
 10
42.67127
 20
9.81134
 10
42.53934
 20
9.81987
 10
42.40976
 20
9.83272
 10
42.2827
 20
9.84991
 10
42.15835
 20
9.87152
 10
42.0369
 20
9.89764
 10
41.91861
 20
9.92843
 10
41.80379
 20
9.96409
 10
41.69285
 20
10.00498
 10
41.58643
 20
10.05169
 10
41.49075
 20
10.11163
 10
41.40397
 20
10.18237
 10
41.31035
 20
10.24483
 10
41.26028
 20
10.27217
 10
41.20742
 20
10.29619
 10
41.15089
 20
10.31593
 10
41.1208
 20
10.32367
 10
41.08904
 20
10.32951
 10
41.05505
 20
10.33281
 10
41.01768
 20
10.3323
 10
40.97405
 20
10.32478
 10
40.89444
 20
10.27731
 10
40.55834
 20
9.9344
 10
40.195
 20
9.62049
 10
40.14262
 20
9.54402
 10
40.13238
 20
9.50095
 10
40.12952
 20
9.46368
 10
40.13068
 20
9.42955
 10
40.13452
 20
9.39749
 10
40.14036
 20
9.36697
 10
40.1565
 20
9.30931
 10
40.17716
 20
9.25505
 10
40.2013
 20
9.20337
 10
40.25776
 20
9.106
 10
40.32291
 20
9.01496
 10
40.37672
 20
8.91571
 10
40.41666
 20
8.80655
 10
40.45051
 20
8.69327
 10
40.47889
 20
8.57644
 10
40.50218
 20
8.45645
 10
40.52063
 20
8.3336
 10
40.53439
 20
8.20813
 10
40.54357
 20
8.08024
 10
40.54825
 20
7.95012
 10
40.54849
 20
7.81791
 10
39.68307
 20
7.35388
 10
39.57308
 20
7.42723
 10
39.46729
 20
7.50315
 10
39.36585
 20
7.58157
 10
39.26896
 20
7.66246
 10
39.17684
 20
7.74581
 10
39.08979
 20
7.83161
 10
39.00819
 20
7.9199
 10
38.93256
 20
8.01078
 10
38.86374
 20
8.10445
 10
38.81085
 20
8.2042
 10
38.77108
 20
8.30885
 10
38.72122
 20
8.40976
 10
38.69154
 20
8.45847
 10
38.65777
 20
8.5057
 10
38.61868
 20
8.55105
 10
38.59649
 20
8.57281
 10
38.57191
 20
8.59374
 10
38.54412
 20
8.6136
 10
38.5115
 20
8.63184
 10
38.46996
 20
8.64714
 10
38.37728
 20
8.64583
 10
37.91475
 20
8.51691
 10
37.44314
 20
8.42673
 10
37.35954
 20
8.3867
 10
37.32913
 20
8.35452
 10
37.30803
 20
8.32367
 10
37.29196
 20
8.29353
 10
37.27926
 20
8.26385
 10
37.26905
 20
8.2345
 10
37.2542
 20
8.1765
 10
37.24496
 20
8.11917
 10
37.24003
 20
8.06235
 10
37.24024
 20
7.9498
 10
37.25114
 20
7.83837
 10
37.24812
 20
7.72551
 10
37.22813
 20
7.61101
 10
37.2008
 20
7.49598
 10
37.16696
 20
7.38061
 10
37.12714
 20
7.26505
 10
37.08169
 20
7.14944
 10
37.03087
 20
7.0339
 10
36.97488
 20
6.91856
 10
36.91387
 20
6.80352
 10
36.84797
 20
6.68891
 10
35.86648
 20
6.71975
 10
35.80791
 20
6.83828
 10
35.75424
 20
6.95692
 10
35.7056
 20
7.07555
 10
35.66214
 20
7.19405
 10
35.62404
 20
7.31229
 10
35.59156
 20
7.43012
 10
35.56503
 20
7.54739
 10
35.54497
 20
7.66391
 10
35.53221
 20
7.77944
 10
35.53628
 20
7.89226
 10
35.55416
 20
8.00278
 10
35.56144
 20
8.1151
 10
35.56008
 20
8.17212
 10
35.55446
 20
8.22991
 10
35.54328
 20
8.28873
 10
35.53494
 20
8.31867
 10
35.52412
 20
8.34909
 10
35.50998
 20
8.38018
 10
35.49085
 20
8.41229
 10
35.46253
 20
8.44631
 10
35.38161
 20
8.49152
 10
34.91659
 20
8.61114
 10
34.46307
 20
8.76884
 10
34.37066
 20
8.77597
 10
34.32823
 20
8.7633
 10
34.29453
 20
8.74714
 10
34.26555
 20
8.72908
 10
34.23971
 20
8.70972
 10
34.21619
 20
8.68941
 10
34.17433
 20
8.6466
 10
34.13766
 20
8.60158
 10
34.10498
 20
8.55483
 10
34.04889
 20
8.45725
 10
34.00262
 20
8.3553
 10
33.94357
 20
8.25908
 10
33.86901
 20
8.16991
 10
33.78782
 20
8.08396
 10
33.70083
 20
8.00096
 10
33.60857
 20
7.9208
 10
33.5114
 20
7.8434
 10
33.40962
 20
7.76875
 10
33.30346
 20
7.69685
 10
33.19311
 20
7.62773
 10
33.07873
 20
7.56143
 10
32.24416
 20
8.07888
 10
32.25269
 20
8.21081
 10
32.26554
 20
8.34039
 10
32.28273
 20
8.46745
 10
32.30434
 20
8.59181
 10
32.33047
 20
8.71325
 10
32.36125
 20
8.83154
 10
32.39691
 20
8.94636
 10
32.4378
 20
9.0573
 10
32.48452
 20
9.16373
 10
32.54445
 20
9.2594
 10
32.61519
 20
9.34618
 10
32.67766
 20
9.43981
 10
32.705
 20
9.48987
 10
32.72902
 20
9.54273
 10
32.74875
 20
9.59926
 10
32.75649
 20
9.62936
 10
32.76234
 20
9.66111
 10
32.76563
 20
9.6951
 10
32.76512
 20
9.73247
 10
32.7576
 20
9.7761
 10
32.71013
 20
9.85571
 10
32.36722
 20
10.19181
 10
32.05331
 20
10.55515
 10
31.97684
 20
10.60753
 10
31.93377
 20
10.61777
 10
31.89651
 20
10.62063
 10
31.86237
 20
10.61947
 10
31.83032
 20
10.61563
 10
31.79979
 20
10.6098
 10
31.74214
 20
10.59365
 10
31.68787
 20
10.573
 10
31.63619
 20
10.54886
 10
31.53882
 20
10.4924
 10
31.44778
 20
10.42724
 10
31.34853
 20
10.37343
 10
31.23938
 20
10.33349
 10
31.12609
 20
10.29965
 10
31.00926
 20
10.27127
 10
30.88927
 20
10.24797
 10
30.76642
 20
10.22953
 10
30.64096
 20
10.21577
 10
30.51307
 20
10.20658
 10
30.38294
 20
10.2019
 10
30.25073
 20
10.20167
 10
29.7867
 20
11.06708
 10
29.86006
 20
11.17707
 10
29.93597
 20
11.28287
 10
30.01439
 20
11.38431
 10
30.09528
 20
11.4812
 10
30.17863
 20
11.57331
 10
30.26443
 20
11.66036
 10
30.35273
 20
11.74197
 10
30.4436
 20
11.8176
 10
30.53728
 20
11.88641
 10
30.63702
 20
11.9393
 10
30.74167
 20
11.97908
 10
30.84258
 20
12.02893
 10
30.89129
 20
12.05862
 10
30.93852
 20
12.09238
 10
30.98387
 20
12.13147
 10
31.00563
 20
12.15367
 10
31.02657
 20
12.17824
 10
31.04642
 20
12.20604
 10
31.06466
 20
12.23865
 10
31.07996
 20
12.2802
 10
31.07865
 20
12.37288
 10
30.94974
 20
12.8354
 0
CIRCLE
 8
a
 10
36.59149
 20
14.15867
 40
0.5
  0
ENDSEC
  0
EOF
